%TF.GenerationSoftware,KiCad,Pcbnew,8.0.3*%
%TF.CreationDate,2024-09-12T01:04:43+05:30*%
%TF.ProjectId,labRF,6c616252-462e-46b6-9963-61645f706362,rev?*%
%TF.SameCoordinates,Original*%
%TF.FileFunction,Legend,Top*%
%TF.FilePolarity,Positive*%
%FSLAX46Y46*%
G04 Gerber Fmt 4.6, Leading zero omitted, Abs format (unit mm)*
G04 Created by KiCad (PCBNEW 8.0.3) date 2024-09-12 01:04:43*
%MOMM*%
%LPD*%
G01*
G04 APERTURE LIST*
%ADD10C,0.300000*%
%ADD11C,0.150000*%
%ADD12C,0.120000*%
G04 APERTURE END LIST*
D10*
X66411653Y-102385912D02*
X65911653Y-101671626D01*
X65554510Y-102385912D02*
X65554510Y-100885912D01*
X65554510Y-100885912D02*
X66125939Y-100885912D01*
X66125939Y-100885912D02*
X66268796Y-100957341D01*
X66268796Y-100957341D02*
X66340225Y-101028769D01*
X66340225Y-101028769D02*
X66411653Y-101171626D01*
X66411653Y-101171626D02*
X66411653Y-101385912D01*
X66411653Y-101385912D02*
X66340225Y-101528769D01*
X66340225Y-101528769D02*
X66268796Y-101600198D01*
X66268796Y-101600198D02*
X66125939Y-101671626D01*
X66125939Y-101671626D02*
X65554510Y-101671626D01*
X67554510Y-101600198D02*
X67054510Y-101600198D01*
X67054510Y-102385912D02*
X67054510Y-100885912D01*
X67054510Y-100885912D02*
X67768796Y-100885912D01*
X69125939Y-100957341D02*
X68983082Y-100885912D01*
X68983082Y-100885912D02*
X68768796Y-100885912D01*
X68768796Y-100885912D02*
X68554510Y-100957341D01*
X68554510Y-100957341D02*
X68411653Y-101100198D01*
X68411653Y-101100198D02*
X68340224Y-101243055D01*
X68340224Y-101243055D02*
X68268796Y-101528769D01*
X68268796Y-101528769D02*
X68268796Y-101743055D01*
X68268796Y-101743055D02*
X68340224Y-102028769D01*
X68340224Y-102028769D02*
X68411653Y-102171626D01*
X68411653Y-102171626D02*
X68554510Y-102314484D01*
X68554510Y-102314484D02*
X68768796Y-102385912D01*
X68768796Y-102385912D02*
X68911653Y-102385912D01*
X68911653Y-102385912D02*
X69125939Y-102314484D01*
X69125939Y-102314484D02*
X69197367Y-102243055D01*
X69197367Y-102243055D02*
X69197367Y-101743055D01*
X69197367Y-101743055D02*
X68911653Y-101743055D01*
X70411653Y-102314484D02*
X70268796Y-102385912D01*
X70268796Y-102385912D02*
X69983082Y-102385912D01*
X69983082Y-102385912D02*
X69840224Y-102314484D01*
X69840224Y-102314484D02*
X69768796Y-102171626D01*
X69768796Y-102171626D02*
X69768796Y-101600198D01*
X69768796Y-101600198D02*
X69840224Y-101457341D01*
X69840224Y-101457341D02*
X69983082Y-101385912D01*
X69983082Y-101385912D02*
X70268796Y-101385912D01*
X70268796Y-101385912D02*
X70411653Y-101457341D01*
X70411653Y-101457341D02*
X70483082Y-101600198D01*
X70483082Y-101600198D02*
X70483082Y-101743055D01*
X70483082Y-101743055D02*
X69768796Y-101885912D01*
X71125938Y-101385912D02*
X71125938Y-102385912D01*
X71125938Y-101528769D02*
X71197367Y-101457341D01*
X71197367Y-101457341D02*
X71340224Y-101385912D01*
X71340224Y-101385912D02*
X71554510Y-101385912D01*
X71554510Y-101385912D02*
X71697367Y-101457341D01*
X71697367Y-101457341D02*
X71768796Y-101600198D01*
X71768796Y-101600198D02*
X71768796Y-102385912D01*
X65554510Y-104800828D02*
X65554510Y-103300828D01*
X65554510Y-103872257D02*
X65697368Y-103800828D01*
X65697368Y-103800828D02*
X65983082Y-103800828D01*
X65983082Y-103800828D02*
X66125939Y-103872257D01*
X66125939Y-103872257D02*
X66197368Y-103943685D01*
X66197368Y-103943685D02*
X66268796Y-104086542D01*
X66268796Y-104086542D02*
X66268796Y-104515114D01*
X66268796Y-104515114D02*
X66197368Y-104657971D01*
X66197368Y-104657971D02*
X66125939Y-104729400D01*
X66125939Y-104729400D02*
X65983082Y-104800828D01*
X65983082Y-104800828D02*
X65697368Y-104800828D01*
X65697368Y-104800828D02*
X65554510Y-104729400D01*
X66768796Y-103800828D02*
X67125939Y-104800828D01*
X67483082Y-103800828D02*
X67125939Y-104800828D01*
X67125939Y-104800828D02*
X66983082Y-105157971D01*
X66983082Y-105157971D02*
X66911653Y-105229400D01*
X66911653Y-105229400D02*
X66768796Y-105300828D01*
X69125939Y-104729400D02*
X69340225Y-104800828D01*
X69340225Y-104800828D02*
X69697367Y-104800828D01*
X69697367Y-104800828D02*
X69840225Y-104729400D01*
X69840225Y-104729400D02*
X69911653Y-104657971D01*
X69911653Y-104657971D02*
X69983082Y-104515114D01*
X69983082Y-104515114D02*
X69983082Y-104372257D01*
X69983082Y-104372257D02*
X69911653Y-104229400D01*
X69911653Y-104229400D02*
X69840225Y-104157971D01*
X69840225Y-104157971D02*
X69697367Y-104086542D01*
X69697367Y-104086542D02*
X69411653Y-104015114D01*
X69411653Y-104015114D02*
X69268796Y-103943685D01*
X69268796Y-103943685D02*
X69197367Y-103872257D01*
X69197367Y-103872257D02*
X69125939Y-103729400D01*
X69125939Y-103729400D02*
X69125939Y-103586542D01*
X69125939Y-103586542D02*
X69197367Y-103443685D01*
X69197367Y-103443685D02*
X69268796Y-103372257D01*
X69268796Y-103372257D02*
X69411653Y-103300828D01*
X69411653Y-103300828D02*
X69768796Y-103300828D01*
X69768796Y-103300828D02*
X69983082Y-103372257D01*
X71268796Y-103800828D02*
X71268796Y-104800828D01*
X70625938Y-103800828D02*
X70625938Y-104586542D01*
X70625938Y-104586542D02*
X70697367Y-104729400D01*
X70697367Y-104729400D02*
X70840224Y-104800828D01*
X70840224Y-104800828D02*
X71054510Y-104800828D01*
X71054510Y-104800828D02*
X71197367Y-104729400D01*
X71197367Y-104729400D02*
X71268796Y-104657971D01*
X71983081Y-104800828D02*
X71983081Y-103800828D01*
X71983081Y-104086542D02*
X72054510Y-103943685D01*
X72054510Y-103943685D02*
X72125939Y-103872257D01*
X72125939Y-103872257D02*
X72268796Y-103800828D01*
X72268796Y-103800828D02*
X72411653Y-103800828D01*
X72768795Y-103800828D02*
X73125938Y-104800828D01*
X73483081Y-103800828D02*
X73125938Y-104800828D01*
X73125938Y-104800828D02*
X72983081Y-105157971D01*
X72983081Y-105157971D02*
X72911652Y-105229400D01*
X72911652Y-105229400D02*
X72768795Y-105300828D01*
X74697367Y-104800828D02*
X74697367Y-104015114D01*
X74697367Y-104015114D02*
X74625938Y-103872257D01*
X74625938Y-103872257D02*
X74483081Y-103800828D01*
X74483081Y-103800828D02*
X74197367Y-103800828D01*
X74197367Y-103800828D02*
X74054509Y-103872257D01*
X74697367Y-104729400D02*
X74554509Y-104800828D01*
X74554509Y-104800828D02*
X74197367Y-104800828D01*
X74197367Y-104800828D02*
X74054509Y-104729400D01*
X74054509Y-104729400D02*
X73983081Y-104586542D01*
X73983081Y-104586542D02*
X73983081Y-104443685D01*
X73983081Y-104443685D02*
X74054509Y-104300828D01*
X74054509Y-104300828D02*
X74197367Y-104229400D01*
X74197367Y-104229400D02*
X74554509Y-104229400D01*
X74554509Y-104229400D02*
X74697367Y-104157971D01*
D11*
X54419761Y-86509819D02*
X54086428Y-86033628D01*
X53848333Y-86509819D02*
X53848333Y-85509819D01*
X53848333Y-85509819D02*
X54229285Y-85509819D01*
X54229285Y-85509819D02*
X54324523Y-85557438D01*
X54324523Y-85557438D02*
X54372142Y-85605057D01*
X54372142Y-85605057D02*
X54419761Y-85700295D01*
X54419761Y-85700295D02*
X54419761Y-85843152D01*
X54419761Y-85843152D02*
X54372142Y-85938390D01*
X54372142Y-85938390D02*
X54324523Y-85986009D01*
X54324523Y-85986009D02*
X54229285Y-86033628D01*
X54229285Y-86033628D02*
X53848333Y-86033628D01*
X54705476Y-85509819D02*
X55038809Y-86509819D01*
X55038809Y-86509819D02*
X55372142Y-85509819D01*
X56229285Y-86509819D02*
X55657857Y-86509819D01*
X55943571Y-86509819D02*
X55943571Y-85509819D01*
X55943571Y-85509819D02*
X55848333Y-85652676D01*
X55848333Y-85652676D02*
X55753095Y-85747914D01*
X55753095Y-85747914D02*
X55657857Y-85795533D01*
X81124819Y-32833333D02*
X81839104Y-32833333D01*
X81839104Y-32833333D02*
X81981961Y-32880952D01*
X81981961Y-32880952D02*
X82077200Y-32976190D01*
X82077200Y-32976190D02*
X82124819Y-33119047D01*
X82124819Y-33119047D02*
X82124819Y-33214285D01*
X81124819Y-31880952D02*
X81124819Y-32357142D01*
X81124819Y-32357142D02*
X81601009Y-32404761D01*
X81601009Y-32404761D02*
X81553390Y-32357142D01*
X81553390Y-32357142D02*
X81505771Y-32261904D01*
X81505771Y-32261904D02*
X81505771Y-32023809D01*
X81505771Y-32023809D02*
X81553390Y-31928571D01*
X81553390Y-31928571D02*
X81601009Y-31880952D01*
X81601009Y-31880952D02*
X81696247Y-31833333D01*
X81696247Y-31833333D02*
X81934342Y-31833333D01*
X81934342Y-31833333D02*
X82029580Y-31880952D01*
X82029580Y-31880952D02*
X82077200Y-31928571D01*
X82077200Y-31928571D02*
X82124819Y-32023809D01*
X82124819Y-32023809D02*
X82124819Y-32261904D01*
X82124819Y-32261904D02*
X82077200Y-32357142D01*
X82077200Y-32357142D02*
X82029580Y-32404761D01*
X49453628Y-70416190D02*
X49929819Y-70416190D01*
X48929819Y-70749523D02*
X49453628Y-70416190D01*
X49453628Y-70416190D02*
X48929819Y-70082857D01*
X49929819Y-69225714D02*
X49929819Y-69797142D01*
X49929819Y-69511428D02*
X48929819Y-69511428D01*
X48929819Y-69511428D02*
X49072676Y-69606666D01*
X49072676Y-69606666D02*
X49167914Y-69701904D01*
X49167914Y-69701904D02*
X49215533Y-69797142D01*
X60184819Y-85801904D02*
X60994342Y-85801904D01*
X60994342Y-85801904D02*
X61089580Y-85754285D01*
X61089580Y-85754285D02*
X61137200Y-85706666D01*
X61137200Y-85706666D02*
X61184819Y-85611428D01*
X61184819Y-85611428D02*
X61184819Y-85420952D01*
X61184819Y-85420952D02*
X61137200Y-85325714D01*
X61137200Y-85325714D02*
X61089580Y-85278095D01*
X61089580Y-85278095D02*
X60994342Y-85230476D01*
X60994342Y-85230476D02*
X60184819Y-85230476D01*
X60518152Y-84325714D02*
X61184819Y-84325714D01*
X60137200Y-84563809D02*
X60851485Y-84801904D01*
X60851485Y-84801904D02*
X60851485Y-84182857D01*
X87928095Y-43624819D02*
X87928095Y-44434342D01*
X87928095Y-44434342D02*
X87975714Y-44529580D01*
X87975714Y-44529580D02*
X88023333Y-44577200D01*
X88023333Y-44577200D02*
X88118571Y-44624819D01*
X88118571Y-44624819D02*
X88309047Y-44624819D01*
X88309047Y-44624819D02*
X88404285Y-44577200D01*
X88404285Y-44577200D02*
X88451904Y-44529580D01*
X88451904Y-44529580D02*
X88499523Y-44434342D01*
X88499523Y-44434342D02*
X88499523Y-43624819D01*
X88880476Y-43624819D02*
X89499523Y-43624819D01*
X89499523Y-43624819D02*
X89166190Y-44005771D01*
X89166190Y-44005771D02*
X89309047Y-44005771D01*
X89309047Y-44005771D02*
X89404285Y-44053390D01*
X89404285Y-44053390D02*
X89451904Y-44101009D01*
X89451904Y-44101009D02*
X89499523Y-44196247D01*
X89499523Y-44196247D02*
X89499523Y-44434342D01*
X89499523Y-44434342D02*
X89451904Y-44529580D01*
X89451904Y-44529580D02*
X89404285Y-44577200D01*
X89404285Y-44577200D02*
X89309047Y-44624819D01*
X89309047Y-44624819D02*
X89023333Y-44624819D01*
X89023333Y-44624819D02*
X88928095Y-44577200D01*
X88928095Y-44577200D02*
X88880476Y-44529580D01*
X68008095Y-93394819D02*
X68008095Y-94204342D01*
X68008095Y-94204342D02*
X68055714Y-94299580D01*
X68055714Y-94299580D02*
X68103333Y-94347200D01*
X68103333Y-94347200D02*
X68198571Y-94394819D01*
X68198571Y-94394819D02*
X68389047Y-94394819D01*
X68389047Y-94394819D02*
X68484285Y-94347200D01*
X68484285Y-94347200D02*
X68531904Y-94299580D01*
X68531904Y-94299580D02*
X68579523Y-94204342D01*
X68579523Y-94204342D02*
X68579523Y-93394819D01*
X69008095Y-93490057D02*
X69055714Y-93442438D01*
X69055714Y-93442438D02*
X69150952Y-93394819D01*
X69150952Y-93394819D02*
X69389047Y-93394819D01*
X69389047Y-93394819D02*
X69484285Y-93442438D01*
X69484285Y-93442438D02*
X69531904Y-93490057D01*
X69531904Y-93490057D02*
X69579523Y-93585295D01*
X69579523Y-93585295D02*
X69579523Y-93680533D01*
X69579523Y-93680533D02*
X69531904Y-93823390D01*
X69531904Y-93823390D02*
X68960476Y-94394819D01*
X68960476Y-94394819D02*
X69579523Y-94394819D01*
X64138095Y-34624819D02*
X64138095Y-35434342D01*
X64138095Y-35434342D02*
X64185714Y-35529580D01*
X64185714Y-35529580D02*
X64233333Y-35577200D01*
X64233333Y-35577200D02*
X64328571Y-35624819D01*
X64328571Y-35624819D02*
X64519047Y-35624819D01*
X64519047Y-35624819D02*
X64614285Y-35577200D01*
X64614285Y-35577200D02*
X64661904Y-35529580D01*
X64661904Y-35529580D02*
X64709523Y-35434342D01*
X64709523Y-35434342D02*
X64709523Y-34624819D01*
X65709523Y-35624819D02*
X65138095Y-35624819D01*
X65423809Y-35624819D02*
X65423809Y-34624819D01*
X65423809Y-34624819D02*
X65328571Y-34767676D01*
X65328571Y-34767676D02*
X65233333Y-34862914D01*
X65233333Y-34862914D02*
X65138095Y-34910533D01*
X74833333Y-92824819D02*
X74500000Y-92348628D01*
X74261905Y-92824819D02*
X74261905Y-91824819D01*
X74261905Y-91824819D02*
X74642857Y-91824819D01*
X74642857Y-91824819D02*
X74738095Y-91872438D01*
X74738095Y-91872438D02*
X74785714Y-91920057D01*
X74785714Y-91920057D02*
X74833333Y-92015295D01*
X74833333Y-92015295D02*
X74833333Y-92158152D01*
X74833333Y-92158152D02*
X74785714Y-92253390D01*
X74785714Y-92253390D02*
X74738095Y-92301009D01*
X74738095Y-92301009D02*
X74642857Y-92348628D01*
X74642857Y-92348628D02*
X74261905Y-92348628D01*
X75738095Y-91824819D02*
X75261905Y-91824819D01*
X75261905Y-91824819D02*
X75214286Y-92301009D01*
X75214286Y-92301009D02*
X75261905Y-92253390D01*
X75261905Y-92253390D02*
X75357143Y-92205771D01*
X75357143Y-92205771D02*
X75595238Y-92205771D01*
X75595238Y-92205771D02*
X75690476Y-92253390D01*
X75690476Y-92253390D02*
X75738095Y-92301009D01*
X75738095Y-92301009D02*
X75785714Y-92396247D01*
X75785714Y-92396247D02*
X75785714Y-92634342D01*
X75785714Y-92634342D02*
X75738095Y-92729580D01*
X75738095Y-92729580D02*
X75690476Y-92777200D01*
X75690476Y-92777200D02*
X75595238Y-92824819D01*
X75595238Y-92824819D02*
X75357143Y-92824819D01*
X75357143Y-92824819D02*
X75261905Y-92777200D01*
X75261905Y-92777200D02*
X75214286Y-92729580D01*
X69833333Y-82954819D02*
X69500000Y-82478628D01*
X69261905Y-82954819D02*
X69261905Y-81954819D01*
X69261905Y-81954819D02*
X69642857Y-81954819D01*
X69642857Y-81954819D02*
X69738095Y-82002438D01*
X69738095Y-82002438D02*
X69785714Y-82050057D01*
X69785714Y-82050057D02*
X69833333Y-82145295D01*
X69833333Y-82145295D02*
X69833333Y-82288152D01*
X69833333Y-82288152D02*
X69785714Y-82383390D01*
X69785714Y-82383390D02*
X69738095Y-82431009D01*
X69738095Y-82431009D02*
X69642857Y-82478628D01*
X69642857Y-82478628D02*
X69261905Y-82478628D01*
X70690476Y-82288152D02*
X70690476Y-82954819D01*
X70452381Y-81907200D02*
X70214286Y-82621485D01*
X70214286Y-82621485D02*
X70833333Y-82621485D01*
X76753333Y-83084819D02*
X76420000Y-82608628D01*
X76181905Y-83084819D02*
X76181905Y-82084819D01*
X76181905Y-82084819D02*
X76562857Y-82084819D01*
X76562857Y-82084819D02*
X76658095Y-82132438D01*
X76658095Y-82132438D02*
X76705714Y-82180057D01*
X76705714Y-82180057D02*
X76753333Y-82275295D01*
X76753333Y-82275295D02*
X76753333Y-82418152D01*
X76753333Y-82418152D02*
X76705714Y-82513390D01*
X76705714Y-82513390D02*
X76658095Y-82561009D01*
X76658095Y-82561009D02*
X76562857Y-82608628D01*
X76562857Y-82608628D02*
X76181905Y-82608628D01*
X77086667Y-82084819D02*
X77705714Y-82084819D01*
X77705714Y-82084819D02*
X77372381Y-82465771D01*
X77372381Y-82465771D02*
X77515238Y-82465771D01*
X77515238Y-82465771D02*
X77610476Y-82513390D01*
X77610476Y-82513390D02*
X77658095Y-82561009D01*
X77658095Y-82561009D02*
X77705714Y-82656247D01*
X77705714Y-82656247D02*
X77705714Y-82894342D01*
X77705714Y-82894342D02*
X77658095Y-82989580D01*
X77658095Y-82989580D02*
X77610476Y-83037200D01*
X77610476Y-83037200D02*
X77515238Y-83084819D01*
X77515238Y-83084819D02*
X77229524Y-83084819D01*
X77229524Y-83084819D02*
X77134286Y-83037200D01*
X77134286Y-83037200D02*
X77086667Y-82989580D01*
X72333333Y-72954819D02*
X72000000Y-72478628D01*
X71761905Y-72954819D02*
X71761905Y-71954819D01*
X71761905Y-71954819D02*
X72142857Y-71954819D01*
X72142857Y-71954819D02*
X72238095Y-72002438D01*
X72238095Y-72002438D02*
X72285714Y-72050057D01*
X72285714Y-72050057D02*
X72333333Y-72145295D01*
X72333333Y-72145295D02*
X72333333Y-72288152D01*
X72333333Y-72288152D02*
X72285714Y-72383390D01*
X72285714Y-72383390D02*
X72238095Y-72431009D01*
X72238095Y-72431009D02*
X72142857Y-72478628D01*
X72142857Y-72478628D02*
X71761905Y-72478628D01*
X72714286Y-72050057D02*
X72761905Y-72002438D01*
X72761905Y-72002438D02*
X72857143Y-71954819D01*
X72857143Y-71954819D02*
X73095238Y-71954819D01*
X73095238Y-71954819D02*
X73190476Y-72002438D01*
X73190476Y-72002438D02*
X73238095Y-72050057D01*
X73238095Y-72050057D02*
X73285714Y-72145295D01*
X73285714Y-72145295D02*
X73285714Y-72240533D01*
X73285714Y-72240533D02*
X73238095Y-72383390D01*
X73238095Y-72383390D02*
X72666667Y-72954819D01*
X72666667Y-72954819D02*
X73285714Y-72954819D01*
X50454819Y-40166666D02*
X49978628Y-40499999D01*
X50454819Y-40738094D02*
X49454819Y-40738094D01*
X49454819Y-40738094D02*
X49454819Y-40357142D01*
X49454819Y-40357142D02*
X49502438Y-40261904D01*
X49502438Y-40261904D02*
X49550057Y-40214285D01*
X49550057Y-40214285D02*
X49645295Y-40166666D01*
X49645295Y-40166666D02*
X49788152Y-40166666D01*
X49788152Y-40166666D02*
X49883390Y-40214285D01*
X49883390Y-40214285D02*
X49931009Y-40261904D01*
X49931009Y-40261904D02*
X49978628Y-40357142D01*
X49978628Y-40357142D02*
X49978628Y-40738094D01*
X50454819Y-39214285D02*
X50454819Y-39785713D01*
X50454819Y-39499999D02*
X49454819Y-39499999D01*
X49454819Y-39499999D02*
X49597676Y-39595237D01*
X49597676Y-39595237D02*
X49692914Y-39690475D01*
X49692914Y-39690475D02*
X49740533Y-39785713D01*
X78634761Y-96990057D02*
X78539523Y-96942438D01*
X78539523Y-96942438D02*
X78444285Y-96847200D01*
X78444285Y-96847200D02*
X78301428Y-96704342D01*
X78301428Y-96704342D02*
X78206190Y-96656723D01*
X78206190Y-96656723D02*
X78110952Y-96656723D01*
X78158571Y-96894819D02*
X78063333Y-96847200D01*
X78063333Y-96847200D02*
X77968095Y-96751961D01*
X77968095Y-96751961D02*
X77920476Y-96561485D01*
X77920476Y-96561485D02*
X77920476Y-96228152D01*
X77920476Y-96228152D02*
X77968095Y-96037676D01*
X77968095Y-96037676D02*
X78063333Y-95942438D01*
X78063333Y-95942438D02*
X78158571Y-95894819D01*
X78158571Y-95894819D02*
X78349047Y-95894819D01*
X78349047Y-95894819D02*
X78444285Y-95942438D01*
X78444285Y-95942438D02*
X78539523Y-96037676D01*
X78539523Y-96037676D02*
X78587142Y-96228152D01*
X78587142Y-96228152D02*
X78587142Y-96561485D01*
X78587142Y-96561485D02*
X78539523Y-96751961D01*
X78539523Y-96751961D02*
X78444285Y-96847200D01*
X78444285Y-96847200D02*
X78349047Y-96894819D01*
X78349047Y-96894819D02*
X78158571Y-96894819D01*
X79444285Y-96228152D02*
X79444285Y-96894819D01*
X79206190Y-95847200D02*
X78968095Y-96561485D01*
X78968095Y-96561485D02*
X79587142Y-96561485D01*
X84490057Y-101365238D02*
X84442438Y-101460476D01*
X84442438Y-101460476D02*
X84347200Y-101555714D01*
X84347200Y-101555714D02*
X84204342Y-101698571D01*
X84204342Y-101698571D02*
X84156723Y-101793809D01*
X84156723Y-101793809D02*
X84156723Y-101889047D01*
X84394819Y-101841428D02*
X84347200Y-101936666D01*
X84347200Y-101936666D02*
X84251961Y-102031904D01*
X84251961Y-102031904D02*
X84061485Y-102079523D01*
X84061485Y-102079523D02*
X83728152Y-102079523D01*
X83728152Y-102079523D02*
X83537676Y-102031904D01*
X83537676Y-102031904D02*
X83442438Y-101936666D01*
X83442438Y-101936666D02*
X83394819Y-101841428D01*
X83394819Y-101841428D02*
X83394819Y-101650952D01*
X83394819Y-101650952D02*
X83442438Y-101555714D01*
X83442438Y-101555714D02*
X83537676Y-101460476D01*
X83537676Y-101460476D02*
X83728152Y-101412857D01*
X83728152Y-101412857D02*
X84061485Y-101412857D01*
X84061485Y-101412857D02*
X84251961Y-101460476D01*
X84251961Y-101460476D02*
X84347200Y-101555714D01*
X84347200Y-101555714D02*
X84394819Y-101650952D01*
X84394819Y-101650952D02*
X84394819Y-101841428D01*
X83394819Y-101079523D02*
X83394819Y-100460476D01*
X83394819Y-100460476D02*
X83775771Y-100793809D01*
X83775771Y-100793809D02*
X83775771Y-100650952D01*
X83775771Y-100650952D02*
X83823390Y-100555714D01*
X83823390Y-100555714D02*
X83871009Y-100508095D01*
X83871009Y-100508095D02*
X83966247Y-100460476D01*
X83966247Y-100460476D02*
X84204342Y-100460476D01*
X84204342Y-100460476D02*
X84299580Y-100508095D01*
X84299580Y-100508095D02*
X84347200Y-100555714D01*
X84347200Y-100555714D02*
X84394819Y-100650952D01*
X84394819Y-100650952D02*
X84394819Y-100936666D01*
X84394819Y-100936666D02*
X84347200Y-101031904D01*
X84347200Y-101031904D02*
X84299580Y-101079523D01*
X96610057Y-86365238D02*
X96562438Y-86460476D01*
X96562438Y-86460476D02*
X96467200Y-86555714D01*
X96467200Y-86555714D02*
X96324342Y-86698571D01*
X96324342Y-86698571D02*
X96276723Y-86793809D01*
X96276723Y-86793809D02*
X96276723Y-86889047D01*
X96514819Y-86841428D02*
X96467200Y-86936666D01*
X96467200Y-86936666D02*
X96371961Y-87031904D01*
X96371961Y-87031904D02*
X96181485Y-87079523D01*
X96181485Y-87079523D02*
X95848152Y-87079523D01*
X95848152Y-87079523D02*
X95657676Y-87031904D01*
X95657676Y-87031904D02*
X95562438Y-86936666D01*
X95562438Y-86936666D02*
X95514819Y-86841428D01*
X95514819Y-86841428D02*
X95514819Y-86650952D01*
X95514819Y-86650952D02*
X95562438Y-86555714D01*
X95562438Y-86555714D02*
X95657676Y-86460476D01*
X95657676Y-86460476D02*
X95848152Y-86412857D01*
X95848152Y-86412857D02*
X96181485Y-86412857D01*
X96181485Y-86412857D02*
X96371961Y-86460476D01*
X96371961Y-86460476D02*
X96467200Y-86555714D01*
X96467200Y-86555714D02*
X96514819Y-86650952D01*
X96514819Y-86650952D02*
X96514819Y-86841428D01*
X95610057Y-86031904D02*
X95562438Y-85984285D01*
X95562438Y-85984285D02*
X95514819Y-85889047D01*
X95514819Y-85889047D02*
X95514819Y-85650952D01*
X95514819Y-85650952D02*
X95562438Y-85555714D01*
X95562438Y-85555714D02*
X95610057Y-85508095D01*
X95610057Y-85508095D02*
X95705295Y-85460476D01*
X95705295Y-85460476D02*
X95800533Y-85460476D01*
X95800533Y-85460476D02*
X95943390Y-85508095D01*
X95943390Y-85508095D02*
X96514819Y-86079523D01*
X96514819Y-86079523D02*
X96514819Y-85460476D01*
X98110057Y-75095238D02*
X98062438Y-75190476D01*
X98062438Y-75190476D02*
X97967200Y-75285714D01*
X97967200Y-75285714D02*
X97824342Y-75428571D01*
X97824342Y-75428571D02*
X97776723Y-75523809D01*
X97776723Y-75523809D02*
X97776723Y-75619047D01*
X98014819Y-75571428D02*
X97967200Y-75666666D01*
X97967200Y-75666666D02*
X97871961Y-75761904D01*
X97871961Y-75761904D02*
X97681485Y-75809523D01*
X97681485Y-75809523D02*
X97348152Y-75809523D01*
X97348152Y-75809523D02*
X97157676Y-75761904D01*
X97157676Y-75761904D02*
X97062438Y-75666666D01*
X97062438Y-75666666D02*
X97014819Y-75571428D01*
X97014819Y-75571428D02*
X97014819Y-75380952D01*
X97014819Y-75380952D02*
X97062438Y-75285714D01*
X97062438Y-75285714D02*
X97157676Y-75190476D01*
X97157676Y-75190476D02*
X97348152Y-75142857D01*
X97348152Y-75142857D02*
X97681485Y-75142857D01*
X97681485Y-75142857D02*
X97871961Y-75190476D01*
X97871961Y-75190476D02*
X97967200Y-75285714D01*
X97967200Y-75285714D02*
X98014819Y-75380952D01*
X98014819Y-75380952D02*
X98014819Y-75571428D01*
X98014819Y-74190476D02*
X98014819Y-74761904D01*
X98014819Y-74476190D02*
X97014819Y-74476190D01*
X97014819Y-74476190D02*
X97157676Y-74571428D01*
X97157676Y-74571428D02*
X97252914Y-74666666D01*
X97252914Y-74666666D02*
X97300533Y-74761904D01*
X97404819Y-80166666D02*
X97404819Y-80642856D01*
X97404819Y-80642856D02*
X96404819Y-80642856D01*
X96500057Y-79880951D02*
X96452438Y-79833332D01*
X96452438Y-79833332D02*
X96404819Y-79738094D01*
X96404819Y-79738094D02*
X96404819Y-79499999D01*
X96404819Y-79499999D02*
X96452438Y-79404761D01*
X96452438Y-79404761D02*
X96500057Y-79357142D01*
X96500057Y-79357142D02*
X96595295Y-79309523D01*
X96595295Y-79309523D02*
X96690533Y-79309523D01*
X96690533Y-79309523D02*
X96833390Y-79357142D01*
X96833390Y-79357142D02*
X97404819Y-79928570D01*
X97404819Y-79928570D02*
X97404819Y-79309523D01*
X94324819Y-63166666D02*
X94324819Y-63642856D01*
X94324819Y-63642856D02*
X93324819Y-63642856D01*
X94324819Y-62309523D02*
X94324819Y-62880951D01*
X94324819Y-62595237D02*
X93324819Y-62595237D01*
X93324819Y-62595237D02*
X93467676Y-62690475D01*
X93467676Y-62690475D02*
X93562914Y-62785713D01*
X93562914Y-62785713D02*
X93610533Y-62880951D01*
X99166666Y-37124819D02*
X99166666Y-37839104D01*
X99166666Y-37839104D02*
X99119047Y-37981961D01*
X99119047Y-37981961D02*
X99023809Y-38077200D01*
X99023809Y-38077200D02*
X98880952Y-38124819D01*
X98880952Y-38124819D02*
X98785714Y-38124819D01*
X99642857Y-38124819D02*
X99642857Y-37124819D01*
X99642857Y-37124819D02*
X100023809Y-37124819D01*
X100023809Y-37124819D02*
X100119047Y-37172438D01*
X100119047Y-37172438D02*
X100166666Y-37220057D01*
X100166666Y-37220057D02*
X100214285Y-37315295D01*
X100214285Y-37315295D02*
X100214285Y-37458152D01*
X100214285Y-37458152D02*
X100166666Y-37553390D01*
X100166666Y-37553390D02*
X100119047Y-37601009D01*
X100119047Y-37601009D02*
X100023809Y-37648628D01*
X100023809Y-37648628D02*
X99642857Y-37648628D01*
X100595238Y-37220057D02*
X100642857Y-37172438D01*
X100642857Y-37172438D02*
X100738095Y-37124819D01*
X100738095Y-37124819D02*
X100976190Y-37124819D01*
X100976190Y-37124819D02*
X101071428Y-37172438D01*
X101071428Y-37172438D02*
X101119047Y-37220057D01*
X101119047Y-37220057D02*
X101166666Y-37315295D01*
X101166666Y-37315295D02*
X101166666Y-37410533D01*
X101166666Y-37410533D02*
X101119047Y-37553390D01*
X101119047Y-37553390D02*
X100547619Y-38124819D01*
X100547619Y-38124819D02*
X101166666Y-38124819D01*
X99166666Y-45124819D02*
X99166666Y-45839104D01*
X99166666Y-45839104D02*
X99119047Y-45981961D01*
X99119047Y-45981961D02*
X99023809Y-46077200D01*
X99023809Y-46077200D02*
X98880952Y-46124819D01*
X98880952Y-46124819D02*
X98785714Y-46124819D01*
X99642857Y-46124819D02*
X99642857Y-45124819D01*
X99642857Y-45124819D02*
X100023809Y-45124819D01*
X100023809Y-45124819D02*
X100119047Y-45172438D01*
X100119047Y-45172438D02*
X100166666Y-45220057D01*
X100166666Y-45220057D02*
X100214285Y-45315295D01*
X100214285Y-45315295D02*
X100214285Y-45458152D01*
X100214285Y-45458152D02*
X100166666Y-45553390D01*
X100166666Y-45553390D02*
X100119047Y-45601009D01*
X100119047Y-45601009D02*
X100023809Y-45648628D01*
X100023809Y-45648628D02*
X99642857Y-45648628D01*
X101166666Y-46124819D02*
X100595238Y-46124819D01*
X100880952Y-46124819D02*
X100880952Y-45124819D01*
X100880952Y-45124819D02*
X100785714Y-45267676D01*
X100785714Y-45267676D02*
X100690476Y-45362914D01*
X100690476Y-45362914D02*
X100595238Y-45410533D01*
X45690476Y-95584819D02*
X45690476Y-96299104D01*
X45690476Y-96299104D02*
X45642857Y-96441961D01*
X45642857Y-96441961D02*
X45547619Y-96537200D01*
X45547619Y-96537200D02*
X45404762Y-96584819D01*
X45404762Y-96584819D02*
X45309524Y-96584819D01*
X46690476Y-96584819D02*
X46119048Y-96584819D01*
X46404762Y-96584819D02*
X46404762Y-95584819D01*
X46404762Y-95584819D02*
X46309524Y-95727676D01*
X46309524Y-95727676D02*
X46214286Y-95822914D01*
X46214286Y-95822914D02*
X46119048Y-95870533D01*
X47642857Y-96584819D02*
X47071429Y-96584819D01*
X47357143Y-96584819D02*
X47357143Y-95584819D01*
X47357143Y-95584819D02*
X47261905Y-95727676D01*
X47261905Y-95727676D02*
X47166667Y-95822914D01*
X47166667Y-95822914D02*
X47071429Y-95870533D01*
X79190476Y-52124819D02*
X79190476Y-52839104D01*
X79190476Y-52839104D02*
X79142857Y-52981961D01*
X79142857Y-52981961D02*
X79047619Y-53077200D01*
X79047619Y-53077200D02*
X78904762Y-53124819D01*
X78904762Y-53124819D02*
X78809524Y-53124819D01*
X80190476Y-53124819D02*
X79619048Y-53124819D01*
X79904762Y-53124819D02*
X79904762Y-52124819D01*
X79904762Y-52124819D02*
X79809524Y-52267676D01*
X79809524Y-52267676D02*
X79714286Y-52362914D01*
X79714286Y-52362914D02*
X79619048Y-52410533D01*
X80809524Y-52124819D02*
X80904762Y-52124819D01*
X80904762Y-52124819D02*
X81000000Y-52172438D01*
X81000000Y-52172438D02*
X81047619Y-52220057D01*
X81047619Y-52220057D02*
X81095238Y-52315295D01*
X81095238Y-52315295D02*
X81142857Y-52505771D01*
X81142857Y-52505771D02*
X81142857Y-52743866D01*
X81142857Y-52743866D02*
X81095238Y-52934342D01*
X81095238Y-52934342D02*
X81047619Y-53029580D01*
X81047619Y-53029580D02*
X81000000Y-53077200D01*
X81000000Y-53077200D02*
X80904762Y-53124819D01*
X80904762Y-53124819D02*
X80809524Y-53124819D01*
X80809524Y-53124819D02*
X80714286Y-53077200D01*
X80714286Y-53077200D02*
X80666667Y-53029580D01*
X80666667Y-53029580D02*
X80619048Y-52934342D01*
X80619048Y-52934342D02*
X80571429Y-52743866D01*
X80571429Y-52743866D02*
X80571429Y-52505771D01*
X80571429Y-52505771D02*
X80619048Y-52315295D01*
X80619048Y-52315295D02*
X80666667Y-52220057D01*
X80666667Y-52220057D02*
X80714286Y-52172438D01*
X80714286Y-52172438D02*
X80809524Y-52124819D01*
X79666666Y-42124819D02*
X79666666Y-42839104D01*
X79666666Y-42839104D02*
X79619047Y-42981961D01*
X79619047Y-42981961D02*
X79523809Y-43077200D01*
X79523809Y-43077200D02*
X79380952Y-43124819D01*
X79380952Y-43124819D02*
X79285714Y-43124819D01*
X80190476Y-43124819D02*
X80380952Y-43124819D01*
X80380952Y-43124819D02*
X80476190Y-43077200D01*
X80476190Y-43077200D02*
X80523809Y-43029580D01*
X80523809Y-43029580D02*
X80619047Y-42886723D01*
X80619047Y-42886723D02*
X80666666Y-42696247D01*
X80666666Y-42696247D02*
X80666666Y-42315295D01*
X80666666Y-42315295D02*
X80619047Y-42220057D01*
X80619047Y-42220057D02*
X80571428Y-42172438D01*
X80571428Y-42172438D02*
X80476190Y-42124819D01*
X80476190Y-42124819D02*
X80285714Y-42124819D01*
X80285714Y-42124819D02*
X80190476Y-42172438D01*
X80190476Y-42172438D02*
X80142857Y-42220057D01*
X80142857Y-42220057D02*
X80095238Y-42315295D01*
X80095238Y-42315295D02*
X80095238Y-42553390D01*
X80095238Y-42553390D02*
X80142857Y-42648628D01*
X80142857Y-42648628D02*
X80190476Y-42696247D01*
X80190476Y-42696247D02*
X80285714Y-42743866D01*
X80285714Y-42743866D02*
X80476190Y-42743866D01*
X80476190Y-42743866D02*
X80571428Y-42696247D01*
X80571428Y-42696247D02*
X80619047Y-42648628D01*
X80619047Y-42648628D02*
X80666666Y-42553390D01*
X57126666Y-96054819D02*
X57126666Y-96769104D01*
X57126666Y-96769104D02*
X57079047Y-96911961D01*
X57079047Y-96911961D02*
X56983809Y-97007200D01*
X56983809Y-97007200D02*
X56840952Y-97054819D01*
X56840952Y-97054819D02*
X56745714Y-97054819D01*
X57745714Y-96483390D02*
X57650476Y-96435771D01*
X57650476Y-96435771D02*
X57602857Y-96388152D01*
X57602857Y-96388152D02*
X57555238Y-96292914D01*
X57555238Y-96292914D02*
X57555238Y-96245295D01*
X57555238Y-96245295D02*
X57602857Y-96150057D01*
X57602857Y-96150057D02*
X57650476Y-96102438D01*
X57650476Y-96102438D02*
X57745714Y-96054819D01*
X57745714Y-96054819D02*
X57936190Y-96054819D01*
X57936190Y-96054819D02*
X58031428Y-96102438D01*
X58031428Y-96102438D02*
X58079047Y-96150057D01*
X58079047Y-96150057D02*
X58126666Y-96245295D01*
X58126666Y-96245295D02*
X58126666Y-96292914D01*
X58126666Y-96292914D02*
X58079047Y-96388152D01*
X58079047Y-96388152D02*
X58031428Y-96435771D01*
X58031428Y-96435771D02*
X57936190Y-96483390D01*
X57936190Y-96483390D02*
X57745714Y-96483390D01*
X57745714Y-96483390D02*
X57650476Y-96531009D01*
X57650476Y-96531009D02*
X57602857Y-96578628D01*
X57602857Y-96578628D02*
X57555238Y-96673866D01*
X57555238Y-96673866D02*
X57555238Y-96864342D01*
X57555238Y-96864342D02*
X57602857Y-96959580D01*
X57602857Y-96959580D02*
X57650476Y-97007200D01*
X57650476Y-97007200D02*
X57745714Y-97054819D01*
X57745714Y-97054819D02*
X57936190Y-97054819D01*
X57936190Y-97054819D02*
X58031428Y-97007200D01*
X58031428Y-97007200D02*
X58079047Y-96959580D01*
X58079047Y-96959580D02*
X58126666Y-96864342D01*
X58126666Y-96864342D02*
X58126666Y-96673866D01*
X58126666Y-96673866D02*
X58079047Y-96578628D01*
X58079047Y-96578628D02*
X58031428Y-96531009D01*
X58031428Y-96531009D02*
X57936190Y-96483390D01*
X105666666Y-34624819D02*
X105666666Y-35339104D01*
X105666666Y-35339104D02*
X105619047Y-35481961D01*
X105619047Y-35481961D02*
X105523809Y-35577200D01*
X105523809Y-35577200D02*
X105380952Y-35624819D01*
X105380952Y-35624819D02*
X105285714Y-35624819D01*
X106047619Y-34624819D02*
X106714285Y-34624819D01*
X106714285Y-34624819D02*
X106285714Y-35624819D01*
X105166666Y-44624819D02*
X105166666Y-45339104D01*
X105166666Y-45339104D02*
X105119047Y-45481961D01*
X105119047Y-45481961D02*
X105023809Y-45577200D01*
X105023809Y-45577200D02*
X104880952Y-45624819D01*
X104880952Y-45624819D02*
X104785714Y-45624819D01*
X106071428Y-44624819D02*
X105880952Y-44624819D01*
X105880952Y-44624819D02*
X105785714Y-44672438D01*
X105785714Y-44672438D02*
X105738095Y-44720057D01*
X105738095Y-44720057D02*
X105642857Y-44862914D01*
X105642857Y-44862914D02*
X105595238Y-45053390D01*
X105595238Y-45053390D02*
X105595238Y-45434342D01*
X105595238Y-45434342D02*
X105642857Y-45529580D01*
X105642857Y-45529580D02*
X105690476Y-45577200D01*
X105690476Y-45577200D02*
X105785714Y-45624819D01*
X105785714Y-45624819D02*
X105976190Y-45624819D01*
X105976190Y-45624819D02*
X106071428Y-45577200D01*
X106071428Y-45577200D02*
X106119047Y-45529580D01*
X106119047Y-45529580D02*
X106166666Y-45434342D01*
X106166666Y-45434342D02*
X106166666Y-45196247D01*
X106166666Y-45196247D02*
X106119047Y-45101009D01*
X106119047Y-45101009D02*
X106071428Y-45053390D01*
X106071428Y-45053390D02*
X105976190Y-45005771D01*
X105976190Y-45005771D02*
X105785714Y-45005771D01*
X105785714Y-45005771D02*
X105690476Y-45053390D01*
X105690476Y-45053390D02*
X105642857Y-45101009D01*
X105642857Y-45101009D02*
X105595238Y-45196247D01*
X46166666Y-29884819D02*
X46166666Y-30599104D01*
X46166666Y-30599104D02*
X46119047Y-30741961D01*
X46119047Y-30741961D02*
X46023809Y-30837200D01*
X46023809Y-30837200D02*
X45880952Y-30884819D01*
X45880952Y-30884819D02*
X45785714Y-30884819D01*
X47071428Y-30218152D02*
X47071428Y-30884819D01*
X46833333Y-29837200D02*
X46595238Y-30551485D01*
X46595238Y-30551485D02*
X47214285Y-30551485D01*
X46166666Y-93884819D02*
X46166666Y-94599104D01*
X46166666Y-94599104D02*
X46119047Y-94741961D01*
X46119047Y-94741961D02*
X46023809Y-94837200D01*
X46023809Y-94837200D02*
X45880952Y-94884819D01*
X45880952Y-94884819D02*
X45785714Y-94884819D01*
X46547619Y-93884819D02*
X47166666Y-93884819D01*
X47166666Y-93884819D02*
X46833333Y-94265771D01*
X46833333Y-94265771D02*
X46976190Y-94265771D01*
X46976190Y-94265771D02*
X47071428Y-94313390D01*
X47071428Y-94313390D02*
X47119047Y-94361009D01*
X47119047Y-94361009D02*
X47166666Y-94456247D01*
X47166666Y-94456247D02*
X47166666Y-94694342D01*
X47166666Y-94694342D02*
X47119047Y-94789580D01*
X47119047Y-94789580D02*
X47071428Y-94837200D01*
X47071428Y-94837200D02*
X46976190Y-94884819D01*
X46976190Y-94884819D02*
X46690476Y-94884819D01*
X46690476Y-94884819D02*
X46595238Y-94837200D01*
X46595238Y-94837200D02*
X46547619Y-94789580D01*
X74666666Y-64284819D02*
X74666666Y-64999104D01*
X74666666Y-64999104D02*
X74619047Y-65141961D01*
X74619047Y-65141961D02*
X74523809Y-65237200D01*
X74523809Y-65237200D02*
X74380952Y-65284819D01*
X74380952Y-65284819D02*
X74285714Y-65284819D01*
X75095238Y-64380057D02*
X75142857Y-64332438D01*
X75142857Y-64332438D02*
X75238095Y-64284819D01*
X75238095Y-64284819D02*
X75476190Y-64284819D01*
X75476190Y-64284819D02*
X75571428Y-64332438D01*
X75571428Y-64332438D02*
X75619047Y-64380057D01*
X75619047Y-64380057D02*
X75666666Y-64475295D01*
X75666666Y-64475295D02*
X75666666Y-64570533D01*
X75666666Y-64570533D02*
X75619047Y-64713390D01*
X75619047Y-64713390D02*
X75047619Y-65284819D01*
X75047619Y-65284819D02*
X75666666Y-65284819D01*
X74666666Y-49444819D02*
X74666666Y-50159104D01*
X74666666Y-50159104D02*
X74619047Y-50301961D01*
X74619047Y-50301961D02*
X74523809Y-50397200D01*
X74523809Y-50397200D02*
X74380952Y-50444819D01*
X74380952Y-50444819D02*
X74285714Y-50444819D01*
X75666666Y-50444819D02*
X75095238Y-50444819D01*
X75380952Y-50444819D02*
X75380952Y-49444819D01*
X75380952Y-49444819D02*
X75285714Y-49587676D01*
X75285714Y-49587676D02*
X75190476Y-49682914D01*
X75190476Y-49682914D02*
X75095238Y-49730533D01*
X81857142Y-72859580D02*
X81809523Y-72907200D01*
X81809523Y-72907200D02*
X81666666Y-72954819D01*
X81666666Y-72954819D02*
X81571428Y-72954819D01*
X81571428Y-72954819D02*
X81428571Y-72907200D01*
X81428571Y-72907200D02*
X81333333Y-72811961D01*
X81333333Y-72811961D02*
X81285714Y-72716723D01*
X81285714Y-72716723D02*
X81238095Y-72526247D01*
X81238095Y-72526247D02*
X81238095Y-72383390D01*
X81238095Y-72383390D02*
X81285714Y-72192914D01*
X81285714Y-72192914D02*
X81333333Y-72097676D01*
X81333333Y-72097676D02*
X81428571Y-72002438D01*
X81428571Y-72002438D02*
X81571428Y-71954819D01*
X81571428Y-71954819D02*
X81666666Y-71954819D01*
X81666666Y-71954819D02*
X81809523Y-72002438D01*
X81809523Y-72002438D02*
X81857142Y-72050057D01*
X82809523Y-72954819D02*
X82238095Y-72954819D01*
X82523809Y-72954819D02*
X82523809Y-71954819D01*
X82523809Y-71954819D02*
X82428571Y-72097676D01*
X82428571Y-72097676D02*
X82333333Y-72192914D01*
X82333333Y-72192914D02*
X82238095Y-72240533D01*
X83666666Y-72288152D02*
X83666666Y-72954819D01*
X83428571Y-71907200D02*
X83190476Y-72621485D01*
X83190476Y-72621485D02*
X83809523Y-72621485D01*
X84859580Y-68142857D02*
X84907200Y-68190476D01*
X84907200Y-68190476D02*
X84954819Y-68333333D01*
X84954819Y-68333333D02*
X84954819Y-68428571D01*
X84954819Y-68428571D02*
X84907200Y-68571428D01*
X84907200Y-68571428D02*
X84811961Y-68666666D01*
X84811961Y-68666666D02*
X84716723Y-68714285D01*
X84716723Y-68714285D02*
X84526247Y-68761904D01*
X84526247Y-68761904D02*
X84383390Y-68761904D01*
X84383390Y-68761904D02*
X84192914Y-68714285D01*
X84192914Y-68714285D02*
X84097676Y-68666666D01*
X84097676Y-68666666D02*
X84002438Y-68571428D01*
X84002438Y-68571428D02*
X83954819Y-68428571D01*
X83954819Y-68428571D02*
X83954819Y-68333333D01*
X83954819Y-68333333D02*
X84002438Y-68190476D01*
X84002438Y-68190476D02*
X84050057Y-68142857D01*
X84954819Y-67190476D02*
X84954819Y-67761904D01*
X84954819Y-67476190D02*
X83954819Y-67476190D01*
X83954819Y-67476190D02*
X84097676Y-67571428D01*
X84097676Y-67571428D02*
X84192914Y-67666666D01*
X84192914Y-67666666D02*
X84240533Y-67761904D01*
X83954819Y-66857142D02*
X83954819Y-66238095D01*
X83954819Y-66238095D02*
X84335771Y-66571428D01*
X84335771Y-66571428D02*
X84335771Y-66428571D01*
X84335771Y-66428571D02*
X84383390Y-66333333D01*
X84383390Y-66333333D02*
X84431009Y-66285714D01*
X84431009Y-66285714D02*
X84526247Y-66238095D01*
X84526247Y-66238095D02*
X84764342Y-66238095D01*
X84764342Y-66238095D02*
X84859580Y-66285714D01*
X84859580Y-66285714D02*
X84907200Y-66333333D01*
X84907200Y-66333333D02*
X84954819Y-66428571D01*
X84954819Y-66428571D02*
X84954819Y-66714285D01*
X84954819Y-66714285D02*
X84907200Y-66809523D01*
X84907200Y-66809523D02*
X84859580Y-66857142D01*
X60359580Y-90642857D02*
X60407200Y-90690476D01*
X60407200Y-90690476D02*
X60454819Y-90833333D01*
X60454819Y-90833333D02*
X60454819Y-90928571D01*
X60454819Y-90928571D02*
X60407200Y-91071428D01*
X60407200Y-91071428D02*
X60311961Y-91166666D01*
X60311961Y-91166666D02*
X60216723Y-91214285D01*
X60216723Y-91214285D02*
X60026247Y-91261904D01*
X60026247Y-91261904D02*
X59883390Y-91261904D01*
X59883390Y-91261904D02*
X59692914Y-91214285D01*
X59692914Y-91214285D02*
X59597676Y-91166666D01*
X59597676Y-91166666D02*
X59502438Y-91071428D01*
X59502438Y-91071428D02*
X59454819Y-90928571D01*
X59454819Y-90928571D02*
X59454819Y-90833333D01*
X59454819Y-90833333D02*
X59502438Y-90690476D01*
X59502438Y-90690476D02*
X59550057Y-90642857D01*
X60454819Y-89690476D02*
X60454819Y-90261904D01*
X60454819Y-89976190D02*
X59454819Y-89976190D01*
X59454819Y-89976190D02*
X59597676Y-90071428D01*
X59597676Y-90071428D02*
X59692914Y-90166666D01*
X59692914Y-90166666D02*
X59740533Y-90261904D01*
X59550057Y-89309523D02*
X59502438Y-89261904D01*
X59502438Y-89261904D02*
X59454819Y-89166666D01*
X59454819Y-89166666D02*
X59454819Y-88928571D01*
X59454819Y-88928571D02*
X59502438Y-88833333D01*
X59502438Y-88833333D02*
X59550057Y-88785714D01*
X59550057Y-88785714D02*
X59645295Y-88738095D01*
X59645295Y-88738095D02*
X59740533Y-88738095D01*
X59740533Y-88738095D02*
X59883390Y-88785714D01*
X59883390Y-88785714D02*
X60454819Y-89357142D01*
X60454819Y-89357142D02*
X60454819Y-88738095D01*
X60359580Y-94392857D02*
X60407200Y-94440476D01*
X60407200Y-94440476D02*
X60454819Y-94583333D01*
X60454819Y-94583333D02*
X60454819Y-94678571D01*
X60454819Y-94678571D02*
X60407200Y-94821428D01*
X60407200Y-94821428D02*
X60311961Y-94916666D01*
X60311961Y-94916666D02*
X60216723Y-94964285D01*
X60216723Y-94964285D02*
X60026247Y-95011904D01*
X60026247Y-95011904D02*
X59883390Y-95011904D01*
X59883390Y-95011904D02*
X59692914Y-94964285D01*
X59692914Y-94964285D02*
X59597676Y-94916666D01*
X59597676Y-94916666D02*
X59502438Y-94821428D01*
X59502438Y-94821428D02*
X59454819Y-94678571D01*
X59454819Y-94678571D02*
X59454819Y-94583333D01*
X59454819Y-94583333D02*
X59502438Y-94440476D01*
X59502438Y-94440476D02*
X59550057Y-94392857D01*
X60454819Y-93440476D02*
X60454819Y-94011904D01*
X60454819Y-93726190D02*
X59454819Y-93726190D01*
X59454819Y-93726190D02*
X59597676Y-93821428D01*
X59597676Y-93821428D02*
X59692914Y-93916666D01*
X59692914Y-93916666D02*
X59740533Y-94011904D01*
X60454819Y-92488095D02*
X60454819Y-93059523D01*
X60454819Y-92773809D02*
X59454819Y-92773809D01*
X59454819Y-92773809D02*
X59597676Y-92869047D01*
X59597676Y-92869047D02*
X59692914Y-92964285D01*
X59692914Y-92964285D02*
X59740533Y-93059523D01*
X63107142Y-74359580D02*
X63059523Y-74407200D01*
X63059523Y-74407200D02*
X62916666Y-74454819D01*
X62916666Y-74454819D02*
X62821428Y-74454819D01*
X62821428Y-74454819D02*
X62678571Y-74407200D01*
X62678571Y-74407200D02*
X62583333Y-74311961D01*
X62583333Y-74311961D02*
X62535714Y-74216723D01*
X62535714Y-74216723D02*
X62488095Y-74026247D01*
X62488095Y-74026247D02*
X62488095Y-73883390D01*
X62488095Y-73883390D02*
X62535714Y-73692914D01*
X62535714Y-73692914D02*
X62583333Y-73597676D01*
X62583333Y-73597676D02*
X62678571Y-73502438D01*
X62678571Y-73502438D02*
X62821428Y-73454819D01*
X62821428Y-73454819D02*
X62916666Y-73454819D01*
X62916666Y-73454819D02*
X63059523Y-73502438D01*
X63059523Y-73502438D02*
X63107142Y-73550057D01*
X64059523Y-74454819D02*
X63488095Y-74454819D01*
X63773809Y-74454819D02*
X63773809Y-73454819D01*
X63773809Y-73454819D02*
X63678571Y-73597676D01*
X63678571Y-73597676D02*
X63583333Y-73692914D01*
X63583333Y-73692914D02*
X63488095Y-73740533D01*
X64678571Y-73454819D02*
X64773809Y-73454819D01*
X64773809Y-73454819D02*
X64869047Y-73502438D01*
X64869047Y-73502438D02*
X64916666Y-73550057D01*
X64916666Y-73550057D02*
X64964285Y-73645295D01*
X64964285Y-73645295D02*
X65011904Y-73835771D01*
X65011904Y-73835771D02*
X65011904Y-74073866D01*
X65011904Y-74073866D02*
X64964285Y-74264342D01*
X64964285Y-74264342D02*
X64916666Y-74359580D01*
X64916666Y-74359580D02*
X64869047Y-74407200D01*
X64869047Y-74407200D02*
X64773809Y-74454819D01*
X64773809Y-74454819D02*
X64678571Y-74454819D01*
X64678571Y-74454819D02*
X64583333Y-74407200D01*
X64583333Y-74407200D02*
X64535714Y-74359580D01*
X64535714Y-74359580D02*
X64488095Y-74264342D01*
X64488095Y-74264342D02*
X64440476Y-74073866D01*
X64440476Y-74073866D02*
X64440476Y-73835771D01*
X64440476Y-73835771D02*
X64488095Y-73645295D01*
X64488095Y-73645295D02*
X64535714Y-73550057D01*
X64535714Y-73550057D02*
X64583333Y-73502438D01*
X64583333Y-73502438D02*
X64678571Y-73454819D01*
X89359580Y-86916666D02*
X89407200Y-86964285D01*
X89407200Y-86964285D02*
X89454819Y-87107142D01*
X89454819Y-87107142D02*
X89454819Y-87202380D01*
X89454819Y-87202380D02*
X89407200Y-87345237D01*
X89407200Y-87345237D02*
X89311961Y-87440475D01*
X89311961Y-87440475D02*
X89216723Y-87488094D01*
X89216723Y-87488094D02*
X89026247Y-87535713D01*
X89026247Y-87535713D02*
X88883390Y-87535713D01*
X88883390Y-87535713D02*
X88692914Y-87488094D01*
X88692914Y-87488094D02*
X88597676Y-87440475D01*
X88597676Y-87440475D02*
X88502438Y-87345237D01*
X88502438Y-87345237D02*
X88454819Y-87202380D01*
X88454819Y-87202380D02*
X88454819Y-87107142D01*
X88454819Y-87107142D02*
X88502438Y-86964285D01*
X88502438Y-86964285D02*
X88550057Y-86916666D01*
X89454819Y-86440475D02*
X89454819Y-86249999D01*
X89454819Y-86249999D02*
X89407200Y-86154761D01*
X89407200Y-86154761D02*
X89359580Y-86107142D01*
X89359580Y-86107142D02*
X89216723Y-86011904D01*
X89216723Y-86011904D02*
X89026247Y-85964285D01*
X89026247Y-85964285D02*
X88645295Y-85964285D01*
X88645295Y-85964285D02*
X88550057Y-86011904D01*
X88550057Y-86011904D02*
X88502438Y-86059523D01*
X88502438Y-86059523D02*
X88454819Y-86154761D01*
X88454819Y-86154761D02*
X88454819Y-86345237D01*
X88454819Y-86345237D02*
X88502438Y-86440475D01*
X88502438Y-86440475D02*
X88550057Y-86488094D01*
X88550057Y-86488094D02*
X88645295Y-86535713D01*
X88645295Y-86535713D02*
X88883390Y-86535713D01*
X88883390Y-86535713D02*
X88978628Y-86488094D01*
X88978628Y-86488094D02*
X89026247Y-86440475D01*
X89026247Y-86440475D02*
X89073866Y-86345237D01*
X89073866Y-86345237D02*
X89073866Y-86154761D01*
X89073866Y-86154761D02*
X89026247Y-86059523D01*
X89026247Y-86059523D02*
X88978628Y-86011904D01*
X88978628Y-86011904D02*
X88883390Y-85964285D01*
X92333333Y-92859580D02*
X92285714Y-92907200D01*
X92285714Y-92907200D02*
X92142857Y-92954819D01*
X92142857Y-92954819D02*
X92047619Y-92954819D01*
X92047619Y-92954819D02*
X91904762Y-92907200D01*
X91904762Y-92907200D02*
X91809524Y-92811961D01*
X91809524Y-92811961D02*
X91761905Y-92716723D01*
X91761905Y-92716723D02*
X91714286Y-92526247D01*
X91714286Y-92526247D02*
X91714286Y-92383390D01*
X91714286Y-92383390D02*
X91761905Y-92192914D01*
X91761905Y-92192914D02*
X91809524Y-92097676D01*
X91809524Y-92097676D02*
X91904762Y-92002438D01*
X91904762Y-92002438D02*
X92047619Y-91954819D01*
X92047619Y-91954819D02*
X92142857Y-91954819D01*
X92142857Y-91954819D02*
X92285714Y-92002438D01*
X92285714Y-92002438D02*
X92333333Y-92050057D01*
X92904762Y-92383390D02*
X92809524Y-92335771D01*
X92809524Y-92335771D02*
X92761905Y-92288152D01*
X92761905Y-92288152D02*
X92714286Y-92192914D01*
X92714286Y-92192914D02*
X92714286Y-92145295D01*
X92714286Y-92145295D02*
X92761905Y-92050057D01*
X92761905Y-92050057D02*
X92809524Y-92002438D01*
X92809524Y-92002438D02*
X92904762Y-91954819D01*
X92904762Y-91954819D02*
X93095238Y-91954819D01*
X93095238Y-91954819D02*
X93190476Y-92002438D01*
X93190476Y-92002438D02*
X93238095Y-92050057D01*
X93238095Y-92050057D02*
X93285714Y-92145295D01*
X93285714Y-92145295D02*
X93285714Y-92192914D01*
X93285714Y-92192914D02*
X93238095Y-92288152D01*
X93238095Y-92288152D02*
X93190476Y-92335771D01*
X93190476Y-92335771D02*
X93095238Y-92383390D01*
X93095238Y-92383390D02*
X92904762Y-92383390D01*
X92904762Y-92383390D02*
X92809524Y-92431009D01*
X92809524Y-92431009D02*
X92761905Y-92478628D01*
X92761905Y-92478628D02*
X92714286Y-92573866D01*
X92714286Y-92573866D02*
X92714286Y-92764342D01*
X92714286Y-92764342D02*
X92761905Y-92859580D01*
X92761905Y-92859580D02*
X92809524Y-92907200D01*
X92809524Y-92907200D02*
X92904762Y-92954819D01*
X92904762Y-92954819D02*
X93095238Y-92954819D01*
X93095238Y-92954819D02*
X93190476Y-92907200D01*
X93190476Y-92907200D02*
X93238095Y-92859580D01*
X93238095Y-92859580D02*
X93285714Y-92764342D01*
X93285714Y-92764342D02*
X93285714Y-92573866D01*
X93285714Y-92573866D02*
X93238095Y-92478628D01*
X93238095Y-92478628D02*
X93190476Y-92431009D01*
X93190476Y-92431009D02*
X93095238Y-92383390D01*
X91359580Y-68916666D02*
X91407200Y-68964285D01*
X91407200Y-68964285D02*
X91454819Y-69107142D01*
X91454819Y-69107142D02*
X91454819Y-69202380D01*
X91454819Y-69202380D02*
X91407200Y-69345237D01*
X91407200Y-69345237D02*
X91311961Y-69440475D01*
X91311961Y-69440475D02*
X91216723Y-69488094D01*
X91216723Y-69488094D02*
X91026247Y-69535713D01*
X91026247Y-69535713D02*
X90883390Y-69535713D01*
X90883390Y-69535713D02*
X90692914Y-69488094D01*
X90692914Y-69488094D02*
X90597676Y-69440475D01*
X90597676Y-69440475D02*
X90502438Y-69345237D01*
X90502438Y-69345237D02*
X90454819Y-69202380D01*
X90454819Y-69202380D02*
X90454819Y-69107142D01*
X90454819Y-69107142D02*
X90502438Y-68964285D01*
X90502438Y-68964285D02*
X90550057Y-68916666D01*
X90454819Y-68583332D02*
X90454819Y-67916666D01*
X90454819Y-67916666D02*
X91454819Y-68345237D01*
X73359580Y-68416666D02*
X73407200Y-68464285D01*
X73407200Y-68464285D02*
X73454819Y-68607142D01*
X73454819Y-68607142D02*
X73454819Y-68702380D01*
X73454819Y-68702380D02*
X73407200Y-68845237D01*
X73407200Y-68845237D02*
X73311961Y-68940475D01*
X73311961Y-68940475D02*
X73216723Y-68988094D01*
X73216723Y-68988094D02*
X73026247Y-69035713D01*
X73026247Y-69035713D02*
X72883390Y-69035713D01*
X72883390Y-69035713D02*
X72692914Y-68988094D01*
X72692914Y-68988094D02*
X72597676Y-68940475D01*
X72597676Y-68940475D02*
X72502438Y-68845237D01*
X72502438Y-68845237D02*
X72454819Y-68702380D01*
X72454819Y-68702380D02*
X72454819Y-68607142D01*
X72454819Y-68607142D02*
X72502438Y-68464285D01*
X72502438Y-68464285D02*
X72550057Y-68416666D01*
X72454819Y-67559523D02*
X72454819Y-67749999D01*
X72454819Y-67749999D02*
X72502438Y-67845237D01*
X72502438Y-67845237D02*
X72550057Y-67892856D01*
X72550057Y-67892856D02*
X72692914Y-67988094D01*
X72692914Y-67988094D02*
X72883390Y-68035713D01*
X72883390Y-68035713D02*
X73264342Y-68035713D01*
X73264342Y-68035713D02*
X73359580Y-67988094D01*
X73359580Y-67988094D02*
X73407200Y-67940475D01*
X73407200Y-67940475D02*
X73454819Y-67845237D01*
X73454819Y-67845237D02*
X73454819Y-67654761D01*
X73454819Y-67654761D02*
X73407200Y-67559523D01*
X73407200Y-67559523D02*
X73359580Y-67511904D01*
X73359580Y-67511904D02*
X73264342Y-67464285D01*
X73264342Y-67464285D02*
X73026247Y-67464285D01*
X73026247Y-67464285D02*
X72931009Y-67511904D01*
X72931009Y-67511904D02*
X72883390Y-67559523D01*
X72883390Y-67559523D02*
X72835771Y-67654761D01*
X72835771Y-67654761D02*
X72835771Y-67845237D01*
X72835771Y-67845237D02*
X72883390Y-67940475D01*
X72883390Y-67940475D02*
X72931009Y-67988094D01*
X72931009Y-67988094D02*
X73026247Y-68035713D01*
X97859580Y-39916666D02*
X97907200Y-39964285D01*
X97907200Y-39964285D02*
X97954819Y-40107142D01*
X97954819Y-40107142D02*
X97954819Y-40202380D01*
X97954819Y-40202380D02*
X97907200Y-40345237D01*
X97907200Y-40345237D02*
X97811961Y-40440475D01*
X97811961Y-40440475D02*
X97716723Y-40488094D01*
X97716723Y-40488094D02*
X97526247Y-40535713D01*
X97526247Y-40535713D02*
X97383390Y-40535713D01*
X97383390Y-40535713D02*
X97192914Y-40488094D01*
X97192914Y-40488094D02*
X97097676Y-40440475D01*
X97097676Y-40440475D02*
X97002438Y-40345237D01*
X97002438Y-40345237D02*
X96954819Y-40202380D01*
X96954819Y-40202380D02*
X96954819Y-40107142D01*
X96954819Y-40107142D02*
X97002438Y-39964285D01*
X97002438Y-39964285D02*
X97050057Y-39916666D01*
X96954819Y-39011904D02*
X96954819Y-39488094D01*
X96954819Y-39488094D02*
X97431009Y-39535713D01*
X97431009Y-39535713D02*
X97383390Y-39488094D01*
X97383390Y-39488094D02*
X97335771Y-39392856D01*
X97335771Y-39392856D02*
X97335771Y-39154761D01*
X97335771Y-39154761D02*
X97383390Y-39059523D01*
X97383390Y-39059523D02*
X97431009Y-39011904D01*
X97431009Y-39011904D02*
X97526247Y-38964285D01*
X97526247Y-38964285D02*
X97764342Y-38964285D01*
X97764342Y-38964285D02*
X97859580Y-39011904D01*
X97859580Y-39011904D02*
X97907200Y-39059523D01*
X97907200Y-39059523D02*
X97954819Y-39154761D01*
X97954819Y-39154761D02*
X97954819Y-39392856D01*
X97954819Y-39392856D02*
X97907200Y-39488094D01*
X97907200Y-39488094D02*
X97859580Y-39535713D01*
X87859580Y-38916666D02*
X87907200Y-38964285D01*
X87907200Y-38964285D02*
X87954819Y-39107142D01*
X87954819Y-39107142D02*
X87954819Y-39202380D01*
X87954819Y-39202380D02*
X87907200Y-39345237D01*
X87907200Y-39345237D02*
X87811961Y-39440475D01*
X87811961Y-39440475D02*
X87716723Y-39488094D01*
X87716723Y-39488094D02*
X87526247Y-39535713D01*
X87526247Y-39535713D02*
X87383390Y-39535713D01*
X87383390Y-39535713D02*
X87192914Y-39488094D01*
X87192914Y-39488094D02*
X87097676Y-39440475D01*
X87097676Y-39440475D02*
X87002438Y-39345237D01*
X87002438Y-39345237D02*
X86954819Y-39202380D01*
X86954819Y-39202380D02*
X86954819Y-39107142D01*
X86954819Y-39107142D02*
X87002438Y-38964285D01*
X87002438Y-38964285D02*
X87050057Y-38916666D01*
X87288152Y-38059523D02*
X87954819Y-38059523D01*
X86907200Y-38297618D02*
X87621485Y-38535713D01*
X87621485Y-38535713D02*
X87621485Y-37916666D01*
X58859580Y-39416666D02*
X58907200Y-39464285D01*
X58907200Y-39464285D02*
X58954819Y-39607142D01*
X58954819Y-39607142D02*
X58954819Y-39702380D01*
X58954819Y-39702380D02*
X58907200Y-39845237D01*
X58907200Y-39845237D02*
X58811961Y-39940475D01*
X58811961Y-39940475D02*
X58716723Y-39988094D01*
X58716723Y-39988094D02*
X58526247Y-40035713D01*
X58526247Y-40035713D02*
X58383390Y-40035713D01*
X58383390Y-40035713D02*
X58192914Y-39988094D01*
X58192914Y-39988094D02*
X58097676Y-39940475D01*
X58097676Y-39940475D02*
X58002438Y-39845237D01*
X58002438Y-39845237D02*
X57954819Y-39702380D01*
X57954819Y-39702380D02*
X57954819Y-39607142D01*
X57954819Y-39607142D02*
X58002438Y-39464285D01*
X58002438Y-39464285D02*
X58050057Y-39416666D01*
X57954819Y-39083332D02*
X57954819Y-38464285D01*
X57954819Y-38464285D02*
X58335771Y-38797618D01*
X58335771Y-38797618D02*
X58335771Y-38654761D01*
X58335771Y-38654761D02*
X58383390Y-38559523D01*
X58383390Y-38559523D02*
X58431009Y-38511904D01*
X58431009Y-38511904D02*
X58526247Y-38464285D01*
X58526247Y-38464285D02*
X58764342Y-38464285D01*
X58764342Y-38464285D02*
X58859580Y-38511904D01*
X58859580Y-38511904D02*
X58907200Y-38559523D01*
X58907200Y-38559523D02*
X58954819Y-38654761D01*
X58954819Y-38654761D02*
X58954819Y-38940475D01*
X58954819Y-38940475D02*
X58907200Y-39035713D01*
X58907200Y-39035713D02*
X58859580Y-39083332D01*
X53083333Y-47859580D02*
X53035714Y-47907200D01*
X53035714Y-47907200D02*
X52892857Y-47954819D01*
X52892857Y-47954819D02*
X52797619Y-47954819D01*
X52797619Y-47954819D02*
X52654762Y-47907200D01*
X52654762Y-47907200D02*
X52559524Y-47811961D01*
X52559524Y-47811961D02*
X52511905Y-47716723D01*
X52511905Y-47716723D02*
X52464286Y-47526247D01*
X52464286Y-47526247D02*
X52464286Y-47383390D01*
X52464286Y-47383390D02*
X52511905Y-47192914D01*
X52511905Y-47192914D02*
X52559524Y-47097676D01*
X52559524Y-47097676D02*
X52654762Y-47002438D01*
X52654762Y-47002438D02*
X52797619Y-46954819D01*
X52797619Y-46954819D02*
X52892857Y-46954819D01*
X52892857Y-46954819D02*
X53035714Y-47002438D01*
X53035714Y-47002438D02*
X53083333Y-47050057D01*
X53464286Y-47050057D02*
X53511905Y-47002438D01*
X53511905Y-47002438D02*
X53607143Y-46954819D01*
X53607143Y-46954819D02*
X53845238Y-46954819D01*
X53845238Y-46954819D02*
X53940476Y-47002438D01*
X53940476Y-47002438D02*
X53988095Y-47050057D01*
X53988095Y-47050057D02*
X54035714Y-47145295D01*
X54035714Y-47145295D02*
X54035714Y-47240533D01*
X54035714Y-47240533D02*
X53988095Y-47383390D01*
X53988095Y-47383390D02*
X53416667Y-47954819D01*
X53416667Y-47954819D02*
X54035714Y-47954819D01*
X53083333Y-68359580D02*
X53035714Y-68407200D01*
X53035714Y-68407200D02*
X52892857Y-68454819D01*
X52892857Y-68454819D02*
X52797619Y-68454819D01*
X52797619Y-68454819D02*
X52654762Y-68407200D01*
X52654762Y-68407200D02*
X52559524Y-68311961D01*
X52559524Y-68311961D02*
X52511905Y-68216723D01*
X52511905Y-68216723D02*
X52464286Y-68026247D01*
X52464286Y-68026247D02*
X52464286Y-67883390D01*
X52464286Y-67883390D02*
X52511905Y-67692914D01*
X52511905Y-67692914D02*
X52559524Y-67597676D01*
X52559524Y-67597676D02*
X52654762Y-67502438D01*
X52654762Y-67502438D02*
X52797619Y-67454819D01*
X52797619Y-67454819D02*
X52892857Y-67454819D01*
X52892857Y-67454819D02*
X53035714Y-67502438D01*
X53035714Y-67502438D02*
X53083333Y-67550057D01*
X54035714Y-68454819D02*
X53464286Y-68454819D01*
X53750000Y-68454819D02*
X53750000Y-67454819D01*
X53750000Y-67454819D02*
X53654762Y-67597676D01*
X53654762Y-67597676D02*
X53559524Y-67692914D01*
X53559524Y-67692914D02*
X53464286Y-67740533D01*
X91701009Y-98220952D02*
X91748628Y-98078095D01*
X91748628Y-98078095D02*
X91796247Y-98030476D01*
X91796247Y-98030476D02*
X91891485Y-97982857D01*
X91891485Y-97982857D02*
X92034342Y-97982857D01*
X92034342Y-97982857D02*
X92129580Y-98030476D01*
X92129580Y-98030476D02*
X92177200Y-98078095D01*
X92177200Y-98078095D02*
X92224819Y-98173333D01*
X92224819Y-98173333D02*
X92224819Y-98554285D01*
X92224819Y-98554285D02*
X91224819Y-98554285D01*
X91224819Y-98554285D02*
X91224819Y-98220952D01*
X91224819Y-98220952D02*
X91272438Y-98125714D01*
X91272438Y-98125714D02*
X91320057Y-98078095D01*
X91320057Y-98078095D02*
X91415295Y-98030476D01*
X91415295Y-98030476D02*
X91510533Y-98030476D01*
X91510533Y-98030476D02*
X91605771Y-98078095D01*
X91605771Y-98078095D02*
X91653390Y-98125714D01*
X91653390Y-98125714D02*
X91701009Y-98220952D01*
X91701009Y-98220952D02*
X91701009Y-98554285D01*
X91224819Y-97649523D02*
X91224819Y-96982857D01*
X91224819Y-96982857D02*
X92224819Y-97649523D01*
X92224819Y-97649523D02*
X92224819Y-96982857D01*
X92224819Y-96078095D02*
X92224819Y-96649523D01*
X92224819Y-96363809D02*
X91224819Y-96363809D01*
X91224819Y-96363809D02*
X91367676Y-96459047D01*
X91367676Y-96459047D02*
X91462914Y-96554285D01*
X91462914Y-96554285D02*
X91510533Y-96649523D01*
X97533866Y-102890951D02*
X97533866Y-102129047D01*
X97914819Y-102509999D02*
X97152914Y-102509999D01*
D12*
%TO.C,RV1*%
X59900000Y-84925000D02*
X59900000Y-75155000D01*
X59900000Y-84925000D02*
X50130000Y-84925000D01*
X59900000Y-75155000D02*
X50130000Y-75155000D01*
X50130000Y-84925000D02*
X50130000Y-75155000D01*
%TO.C,J5*%
X82670000Y-33830000D02*
X82670000Y-32500000D01*
X84000000Y-33830000D02*
X82670000Y-33830000D01*
X85270000Y-33830000D02*
X100570000Y-33830000D01*
X85270000Y-33830000D02*
X85270000Y-31170000D01*
X100570000Y-33830000D02*
X100570000Y-31170000D01*
X85270000Y-31170000D02*
X100570000Y-31170000D01*
%TO.C,Y1*%
X50475000Y-62565000D02*
X50475000Y-56315000D01*
X55525000Y-62565000D02*
X55525000Y-56315000D01*
X55525000Y-62565000D02*
G75*
G02*
X50475000Y-62565000I-2525000J0D01*
G01*
X50475000Y-56315000D02*
G75*
G02*
X55525000Y-56315000I2525000J0D01*
G01*
%TO.C,U4*%
X61730000Y-90160000D02*
X66371000Y-90160000D01*
X61730000Y-90160000D02*
X61730000Y-79920000D01*
X63240000Y-90160000D02*
X63240000Y-79920000D01*
X66371000Y-90160000D02*
X66371000Y-79920000D01*
X61730000Y-86890000D02*
X63240000Y-86890000D01*
X61730000Y-83189000D02*
X63240000Y-83189000D01*
X61730000Y-79920000D02*
X66371000Y-79920000D01*
%TO.C,U3*%
X86040000Y-45170000D02*
X86040000Y-63070000D01*
X86040000Y-63070000D02*
X91340000Y-63070000D01*
X87690000Y-45170000D02*
X86040000Y-45170000D01*
X91340000Y-45170000D02*
X89690000Y-45170000D01*
X91340000Y-63070000D02*
X91340000Y-45170000D01*
X89690000Y-45170000D02*
G75*
G02*
X87690000Y-45170000I-1000000J0D01*
G01*
%TO.C,U2*%
X66970000Y-99350000D02*
X70570000Y-99350000D01*
X66931522Y-99338478D02*
G75*
G02*
X68770000Y-94899999I1838478J1838478D01*
G01*
X68770000Y-94900000D02*
G75*
G02*
X70608478Y-99338478I0J-2600000D01*
G01*
%TO.C,U1*%
X62250000Y-36170000D02*
X62250000Y-71850000D01*
X62250000Y-71850000D02*
X67550000Y-71850000D01*
X63900000Y-36170000D02*
X62250000Y-36170000D01*
X67550000Y-36170000D02*
X65900000Y-36170000D01*
X67550000Y-71850000D02*
X67550000Y-36170000D01*
X65900000Y-36170000D02*
G75*
G02*
X63900000Y-36170000I-1000000J0D01*
G01*
%TO.C,R5*%
X79040000Y-90000000D02*
X78270000Y-90000000D01*
X78270000Y-91370000D02*
X78270000Y-88630000D01*
X78270000Y-88630000D02*
X71730000Y-88630000D01*
X71730000Y-91370000D02*
X78270000Y-91370000D01*
X71730000Y-88630000D02*
X71730000Y-91370000D01*
X70960000Y-90000000D02*
X71730000Y-90000000D01*
%TO.C,R4*%
X71040000Y-79300000D02*
X71810000Y-79300000D01*
X71810000Y-77930000D02*
X71810000Y-80670000D01*
X71810000Y-80670000D02*
X78350000Y-80670000D01*
X78350000Y-77930000D02*
X71810000Y-77930000D01*
X78350000Y-80670000D02*
X78350000Y-77930000D01*
X79120000Y-79300000D02*
X78350000Y-79300000D01*
%TO.C,R3*%
X72880000Y-85000000D02*
X73650000Y-85000000D01*
X73650000Y-83630000D02*
X73650000Y-86370000D01*
X73650000Y-86370000D02*
X80190000Y-86370000D01*
X80190000Y-83630000D02*
X73650000Y-83630000D01*
X80190000Y-86370000D02*
X80190000Y-83630000D01*
X80960000Y-85000000D02*
X80190000Y-85000000D01*
%TO.C,R2*%
X70880000Y-75000000D02*
X71650000Y-75000000D01*
X71650000Y-73630000D02*
X71650000Y-76370000D01*
X71650000Y-76370000D02*
X78190000Y-76370000D01*
X78190000Y-73630000D02*
X71650000Y-73630000D01*
X78190000Y-76370000D02*
X78190000Y-73630000D01*
X78960000Y-75000000D02*
X78190000Y-75000000D01*
%TO.C,R1*%
X52500000Y-36380000D02*
X52500000Y-37150000D01*
X53870000Y-37150000D02*
X51130000Y-37150000D01*
X51130000Y-37150000D02*
X51130000Y-43690000D01*
X53870000Y-43690000D02*
X53870000Y-37150000D01*
X51130000Y-43690000D02*
X53870000Y-43690000D01*
X52500000Y-44460000D02*
X52500000Y-43690000D01*
%TO.C,Q4*%
X76930000Y-101850000D02*
X80530000Y-101850000D01*
X76891522Y-101838478D02*
G75*
G02*
X78730000Y-97399999I1838478J1838478D01*
G01*
X78730000Y-97400000D02*
G75*
G02*
X80568478Y-101838478I0J-2600000D01*
G01*
%TO.C,Q3*%
X89350000Y-103070000D02*
X89350000Y-99470000D01*
X89338478Y-103108478D02*
G75*
G02*
X84899999Y-101270000I-1838478J1838478D01*
G01*
X84900000Y-101270000D02*
G75*
G02*
X89338478Y-99431522I2600000J0D01*
G01*
%TO.C,Q2*%
X90650000Y-84470000D02*
X90650000Y-88070000D01*
X90661522Y-84431522D02*
G75*
G02*
X95100001Y-86270000I1838478J-1838478D01*
G01*
X95100000Y-86270000D02*
G75*
G02*
X90661522Y-88108478I-2600000J0D01*
G01*
%TO.C,Q1*%
X92150000Y-73200000D02*
X92150000Y-76800000D01*
X92161522Y-73161522D02*
G75*
G02*
X96600001Y-75000000I1838478J-1838478D01*
G01*
X96600000Y-75000000D02*
G75*
G02*
X92161522Y-76838478I-2600000J0D01*
G01*
%TO.C,L2*%
X98350000Y-87485000D02*
X107230000Y-87485000D01*
X98350000Y-87485000D02*
X98350000Y-81365000D01*
X107230000Y-87485000D02*
X107230000Y-81365000D01*
X98350000Y-78635000D02*
X98350000Y-72515000D01*
X107230000Y-78635000D02*
X107230000Y-72515000D01*
X98350000Y-72515000D02*
X107230000Y-72515000D01*
%TO.C,L1*%
X95270000Y-70485000D02*
X104150000Y-70485000D01*
X95270000Y-70485000D02*
X95270000Y-64365000D01*
X104150000Y-70485000D02*
X104150000Y-64365000D01*
X95270000Y-61635000D02*
X95270000Y-55515000D01*
X104150000Y-61635000D02*
X104150000Y-55515000D01*
X95270000Y-55515000D02*
X104150000Y-55515000D01*
%TO.C,JP2*%
X98670000Y-38670000D02*
X100000000Y-38670000D01*
X98670000Y-40000000D02*
X98670000Y-38670000D01*
X98670000Y-41270000D02*
X98670000Y-43870000D01*
X98670000Y-41270000D02*
X101330000Y-41270000D01*
X98670000Y-43870000D02*
X101330000Y-43870000D01*
X101330000Y-41270000D02*
X101330000Y-43870000D01*
%TO.C,JP1*%
X98670000Y-46670000D02*
X100000000Y-46670000D01*
X98670000Y-48000000D02*
X98670000Y-46670000D01*
X98670000Y-49270000D02*
X98670000Y-51870000D01*
X98670000Y-49270000D02*
X101330000Y-49270000D01*
X98670000Y-51870000D02*
X101330000Y-51870000D01*
X101330000Y-49270000D02*
X101330000Y-51870000D01*
%TO.C,J11*%
X45170000Y-97130000D02*
X46500000Y-97130000D01*
X45170000Y-98460000D02*
X45170000Y-97130000D01*
X45170000Y-99730000D02*
X45170000Y-102330000D01*
X45170000Y-99730000D02*
X47830000Y-99730000D01*
X45170000Y-102330000D02*
X47830000Y-102330000D01*
X47830000Y-99730000D02*
X47830000Y-102330000D01*
%TO.C,J10*%
X78670000Y-53670000D02*
X80000000Y-53670000D01*
X78670000Y-55000000D02*
X78670000Y-53670000D01*
X78670000Y-56270000D02*
X78670000Y-58870000D01*
X78670000Y-56270000D02*
X81330000Y-56270000D01*
X78670000Y-58870000D02*
X81330000Y-58870000D01*
X81330000Y-56270000D02*
X81330000Y-58870000D01*
%TO.C,J9*%
X81330000Y-46270000D02*
X81330000Y-48870000D01*
X78670000Y-48870000D02*
X81330000Y-48870000D01*
X78670000Y-46270000D02*
X81330000Y-46270000D01*
X78670000Y-46270000D02*
X78670000Y-48870000D01*
X78670000Y-45000000D02*
X78670000Y-43670000D01*
X78670000Y-43670000D02*
X80000000Y-43670000D01*
%TO.C,J8*%
X53610000Y-97350000D02*
X61410000Y-97350000D01*
X53610000Y-103400000D02*
X53610000Y-97350000D01*
X54960000Y-102290000D02*
X60040000Y-102290000D01*
X54960000Y-103300000D02*
X54960000Y-102290000D01*
X60040000Y-102290000D02*
X60040000Y-103300000D01*
X61410000Y-97350000D02*
X61410000Y-103400000D01*
X61410000Y-103400000D02*
X53610000Y-103400000D01*
%TO.C,J7*%
X104670000Y-36170000D02*
X106000000Y-36170000D01*
X104670000Y-37500000D02*
X104670000Y-36170000D01*
X104670000Y-38770000D02*
X104670000Y-41370000D01*
X104670000Y-38770000D02*
X107330000Y-38770000D01*
X104670000Y-41370000D02*
X107330000Y-41370000D01*
X107330000Y-38770000D02*
X107330000Y-41370000D01*
%TO.C,J6*%
X104170000Y-46170000D02*
X105500000Y-46170000D01*
X104170000Y-47500000D02*
X104170000Y-46170000D01*
X104170000Y-48770000D02*
X104170000Y-51370000D01*
X104170000Y-48770000D02*
X106830000Y-48770000D01*
X104170000Y-51370000D02*
X106830000Y-51370000D01*
X106830000Y-48770000D02*
X106830000Y-51370000D01*
%TO.C,J4*%
X45170000Y-31430000D02*
X46500000Y-31430000D01*
X45170000Y-32760000D02*
X45170000Y-31430000D01*
X45170000Y-34030000D02*
X45170000Y-49330000D01*
X45170000Y-34030000D02*
X47830000Y-34030000D01*
X45170000Y-49330000D02*
X47830000Y-49330000D01*
X47830000Y-34030000D02*
X47830000Y-49330000D01*
%TO.C,J3*%
X47830000Y-93430000D02*
X46500000Y-93430000D01*
X47830000Y-92100000D02*
X47830000Y-93430000D01*
X47830000Y-90830000D02*
X47830000Y-52670000D01*
X47830000Y-90830000D02*
X45170000Y-90830000D01*
X47830000Y-52670000D02*
X45170000Y-52670000D01*
X45170000Y-90830000D02*
X45170000Y-52670000D01*
%TO.C,J2*%
X76330000Y-63830000D02*
X75000000Y-63830000D01*
X76330000Y-62500000D02*
X76330000Y-63830000D01*
X76330000Y-61230000D02*
X76330000Y-51010000D01*
X76330000Y-61230000D02*
X73670000Y-61230000D01*
X76330000Y-51010000D02*
X73670000Y-51010000D01*
X73670000Y-61230000D02*
X73670000Y-51010000D01*
%TO.C,J1*%
X76330000Y-48990000D02*
X75000000Y-48990000D01*
X76330000Y-47660000D02*
X76330000Y-48990000D01*
X76330000Y-46390000D02*
X76330000Y-36170000D01*
X76330000Y-46390000D02*
X73670000Y-46390000D01*
X76330000Y-36170000D02*
X73670000Y-36170000D01*
X73670000Y-46390000D02*
X73670000Y-36170000D01*
%TO.C,C14*%
X82090302Y-74685000D02*
X82890302Y-74685000D01*
X82490302Y-74285000D02*
X82490302Y-75085000D01*
X86500000Y-72920000D02*
X86500000Y-81080000D01*
X86540000Y-72920000D02*
X86540000Y-81080000D01*
X86580000Y-72920000D02*
X86580000Y-81080000D01*
X86620000Y-72921000D02*
X86620000Y-81079000D01*
X86660000Y-72923000D02*
X86660000Y-81077000D01*
X86700000Y-72924000D02*
X86700000Y-81076000D01*
X86740000Y-72926000D02*
X86740000Y-81074000D01*
X86780000Y-72929000D02*
X86780000Y-81071000D01*
X86820000Y-72932000D02*
X86820000Y-81068000D01*
X86860000Y-72935000D02*
X86860000Y-81065000D01*
X86900000Y-72939000D02*
X86900000Y-81061000D01*
X86940000Y-72943000D02*
X86940000Y-81057000D01*
X86980000Y-72948000D02*
X86980000Y-81052000D01*
X87020000Y-72952000D02*
X87020000Y-81048000D01*
X87060000Y-72958000D02*
X87060000Y-81042000D01*
X87100000Y-72963000D02*
X87100000Y-81037000D01*
X87140000Y-72970000D02*
X87140000Y-81030000D01*
X87180000Y-72976000D02*
X87180000Y-81024000D01*
X87221000Y-72983000D02*
X87221000Y-81017000D01*
X87261000Y-72990000D02*
X87261000Y-81010000D01*
X87301000Y-72998000D02*
X87301000Y-81002000D01*
X87341000Y-73006000D02*
X87341000Y-80994000D01*
X87381000Y-73015000D02*
X87381000Y-80985000D01*
X87421000Y-73024000D02*
X87421000Y-80976000D01*
X87461000Y-73033000D02*
X87461000Y-80967000D01*
X87501000Y-73043000D02*
X87501000Y-80957000D01*
X87541000Y-73053000D02*
X87541000Y-80947000D01*
X87581000Y-73064000D02*
X87581000Y-80936000D01*
X87621000Y-73075000D02*
X87621000Y-80925000D01*
X87661000Y-73086000D02*
X87661000Y-80914000D01*
X87701000Y-73098000D02*
X87701000Y-80902000D01*
X87741000Y-73111000D02*
X87741000Y-80889000D01*
X87781000Y-73123000D02*
X87781000Y-80877000D01*
X87821000Y-73137000D02*
X87821000Y-80863000D01*
X87861000Y-73150000D02*
X87861000Y-80850000D01*
X87901000Y-73165000D02*
X87901000Y-80835000D01*
X87941000Y-73179000D02*
X87941000Y-80821000D01*
X87981000Y-73195000D02*
X87981000Y-75960000D01*
X87981000Y-78040000D02*
X87981000Y-80805000D01*
X88021000Y-73210000D02*
X88021000Y-75960000D01*
X88021000Y-78040000D02*
X88021000Y-80790000D01*
X88061000Y-73226000D02*
X88061000Y-75960000D01*
X88061000Y-78040000D02*
X88061000Y-80774000D01*
X88101000Y-73243000D02*
X88101000Y-75960000D01*
X88101000Y-78040000D02*
X88101000Y-80757000D01*
X88141000Y-73260000D02*
X88141000Y-75960000D01*
X88141000Y-78040000D02*
X88141000Y-80740000D01*
X88181000Y-73278000D02*
X88181000Y-75960000D01*
X88181000Y-78040000D02*
X88181000Y-80722000D01*
X88221000Y-73296000D02*
X88221000Y-75960000D01*
X88221000Y-78040000D02*
X88221000Y-80704000D01*
X88261000Y-73314000D02*
X88261000Y-75960000D01*
X88261000Y-78040000D02*
X88261000Y-80686000D01*
X88301000Y-73334000D02*
X88301000Y-75960000D01*
X88301000Y-78040000D02*
X88301000Y-80666000D01*
X88341000Y-73353000D02*
X88341000Y-75960000D01*
X88341000Y-78040000D02*
X88341000Y-80647000D01*
X88381000Y-73373000D02*
X88381000Y-75960000D01*
X88381000Y-78040000D02*
X88381000Y-80627000D01*
X88421000Y-73394000D02*
X88421000Y-75960000D01*
X88421000Y-78040000D02*
X88421000Y-80606000D01*
X88461000Y-73416000D02*
X88461000Y-75960000D01*
X88461000Y-78040000D02*
X88461000Y-80584000D01*
X88501000Y-73438000D02*
X88501000Y-75960000D01*
X88501000Y-78040000D02*
X88501000Y-80562000D01*
X88541000Y-73460000D02*
X88541000Y-75960000D01*
X88541000Y-78040000D02*
X88541000Y-80540000D01*
X88581000Y-73483000D02*
X88581000Y-75960000D01*
X88581000Y-78040000D02*
X88581000Y-80517000D01*
X88621000Y-73507000D02*
X88621000Y-75960000D01*
X88621000Y-78040000D02*
X88621000Y-80493000D01*
X88661000Y-73531000D02*
X88661000Y-75960000D01*
X88661000Y-78040000D02*
X88661000Y-80469000D01*
X88701000Y-73556000D02*
X88701000Y-75960000D01*
X88701000Y-78040000D02*
X88701000Y-80444000D01*
X88741000Y-73582000D02*
X88741000Y-75960000D01*
X88741000Y-78040000D02*
X88741000Y-80418000D01*
X88781000Y-73608000D02*
X88781000Y-75960000D01*
X88781000Y-78040000D02*
X88781000Y-80392000D01*
X88821000Y-73635000D02*
X88821000Y-75960000D01*
X88821000Y-78040000D02*
X88821000Y-80365000D01*
X88861000Y-73662000D02*
X88861000Y-75960000D01*
X88861000Y-78040000D02*
X88861000Y-80338000D01*
X88901000Y-73691000D02*
X88901000Y-75960000D01*
X88901000Y-78040000D02*
X88901000Y-80309000D01*
X88941000Y-73720000D02*
X88941000Y-75960000D01*
X88941000Y-78040000D02*
X88941000Y-80280000D01*
X88981000Y-73750000D02*
X88981000Y-75960000D01*
X88981000Y-78040000D02*
X88981000Y-80250000D01*
X89021000Y-73780000D02*
X89021000Y-75960000D01*
X89021000Y-78040000D02*
X89021000Y-80220000D01*
X89061000Y-73811000D02*
X89061000Y-75960000D01*
X89061000Y-78040000D02*
X89061000Y-80189000D01*
X89101000Y-73844000D02*
X89101000Y-75960000D01*
X89101000Y-78040000D02*
X89101000Y-80156000D01*
X89141000Y-73876000D02*
X89141000Y-75960000D01*
X89141000Y-78040000D02*
X89141000Y-80124000D01*
X89181000Y-73910000D02*
X89181000Y-75960000D01*
X89181000Y-78040000D02*
X89181000Y-80090000D01*
X89221000Y-73945000D02*
X89221000Y-75960000D01*
X89221000Y-78040000D02*
X89221000Y-80055000D01*
X89261000Y-73981000D02*
X89261000Y-75960000D01*
X89261000Y-78040000D02*
X89261000Y-80019000D01*
X89301000Y-74017000D02*
X89301000Y-75960000D01*
X89301000Y-78040000D02*
X89301000Y-79983000D01*
X89341000Y-74055000D02*
X89341000Y-75960000D01*
X89341000Y-78040000D02*
X89341000Y-79945000D01*
X89381000Y-74093000D02*
X89381000Y-75960000D01*
X89381000Y-78040000D02*
X89381000Y-79907000D01*
X89421000Y-74133000D02*
X89421000Y-75960000D01*
X89421000Y-78040000D02*
X89421000Y-79867000D01*
X89461000Y-74174000D02*
X89461000Y-75960000D01*
X89461000Y-78040000D02*
X89461000Y-79826000D01*
X89501000Y-74216000D02*
X89501000Y-75960000D01*
X89501000Y-78040000D02*
X89501000Y-79784000D01*
X89541000Y-74259000D02*
X89541000Y-75960000D01*
X89541000Y-78040000D02*
X89541000Y-79741000D01*
X89581000Y-74303000D02*
X89581000Y-75960000D01*
X89581000Y-78040000D02*
X89581000Y-79697000D01*
X89621000Y-74349000D02*
X89621000Y-75960000D01*
X89621000Y-78040000D02*
X89621000Y-79651000D01*
X89661000Y-74396000D02*
X89661000Y-75960000D01*
X89661000Y-78040000D02*
X89661000Y-79604000D01*
X89701000Y-74444000D02*
X89701000Y-75960000D01*
X89701000Y-78040000D02*
X89701000Y-79556000D01*
X89741000Y-74495000D02*
X89741000Y-75960000D01*
X89741000Y-78040000D02*
X89741000Y-79505000D01*
X89781000Y-74546000D02*
X89781000Y-75960000D01*
X89781000Y-78040000D02*
X89781000Y-79454000D01*
X89821000Y-74600000D02*
X89821000Y-75960000D01*
X89821000Y-78040000D02*
X89821000Y-79400000D01*
X89861000Y-74655000D02*
X89861000Y-75960000D01*
X89861000Y-78040000D02*
X89861000Y-79345000D01*
X89901000Y-74713000D02*
X89901000Y-75960000D01*
X89901000Y-78040000D02*
X89901000Y-79287000D01*
X89941000Y-74772000D02*
X89941000Y-75960000D01*
X89941000Y-78040000D02*
X89941000Y-79228000D01*
X89981000Y-74834000D02*
X89981000Y-75960000D01*
X89981000Y-78040000D02*
X89981000Y-79166000D01*
X90021000Y-74898000D02*
X90021000Y-75960000D01*
X90021000Y-78040000D02*
X90021000Y-79102000D01*
X90061000Y-74966000D02*
X90061000Y-79034000D01*
X90101000Y-75036000D02*
X90101000Y-78964000D01*
X90141000Y-75110000D02*
X90141000Y-78890000D01*
X90181000Y-75187000D02*
X90181000Y-78813000D01*
X90221000Y-75269000D02*
X90221000Y-78731000D01*
X90261000Y-75355000D02*
X90261000Y-78645000D01*
X90301000Y-75448000D02*
X90301000Y-78552000D01*
X90341000Y-75547000D02*
X90341000Y-78453000D01*
X90381000Y-75654000D02*
X90381000Y-78346000D01*
X90421000Y-75771000D02*
X90421000Y-78229000D01*
X90461000Y-75902000D02*
X90461000Y-78098000D01*
X90501000Y-76052000D02*
X90501000Y-77948000D01*
X90541000Y-76232000D02*
X90541000Y-77768000D01*
X90581000Y-76467000D02*
X90581000Y-77533000D01*
X90620000Y-77000000D02*
G75*
G02*
X82380000Y-77000000I-4120000J0D01*
G01*
X82380000Y-77000000D02*
G75*
G02*
X90620000Y-77000000I4120000J0D01*
G01*
%TO.C,C13*%
X83370000Y-66130000D02*
X80630000Y-66130000D01*
X83370000Y-66130000D02*
X83370000Y-71370000D01*
X80630000Y-66130000D02*
X80630000Y-71370000D01*
X83370000Y-71370000D02*
X80630000Y-71370000D01*
%TO.C,C12*%
X57315000Y-87090302D02*
X57315000Y-87890302D01*
X57715000Y-87490302D02*
X56915000Y-87490302D01*
X59080000Y-91500000D02*
X50920000Y-91500000D01*
X59080000Y-91540000D02*
X50920000Y-91540000D01*
X59080000Y-91580000D02*
X50920000Y-91580000D01*
X59079000Y-91620000D02*
X50921000Y-91620000D01*
X59077000Y-91660000D02*
X50923000Y-91660000D01*
X59076000Y-91700000D02*
X50924000Y-91700000D01*
X59074000Y-91740000D02*
X50926000Y-91740000D01*
X59071000Y-91780000D02*
X50929000Y-91780000D01*
X59068000Y-91820000D02*
X50932000Y-91820000D01*
X59065000Y-91860000D02*
X50935000Y-91860000D01*
X59061000Y-91900000D02*
X50939000Y-91900000D01*
X59057000Y-91940000D02*
X50943000Y-91940000D01*
X59052000Y-91980000D02*
X50948000Y-91980000D01*
X59048000Y-92020000D02*
X50952000Y-92020000D01*
X59042000Y-92060000D02*
X50958000Y-92060000D01*
X59037000Y-92100000D02*
X50963000Y-92100000D01*
X59030000Y-92140000D02*
X50970000Y-92140000D01*
X59024000Y-92180000D02*
X50976000Y-92180000D01*
X59017000Y-92221000D02*
X50983000Y-92221000D01*
X59010000Y-92261000D02*
X50990000Y-92261000D01*
X59002000Y-92301000D02*
X50998000Y-92301000D01*
X58994000Y-92341000D02*
X51006000Y-92341000D01*
X58985000Y-92381000D02*
X51015000Y-92381000D01*
X58976000Y-92421000D02*
X51024000Y-92421000D01*
X58967000Y-92461000D02*
X51033000Y-92461000D01*
X58957000Y-92501000D02*
X51043000Y-92501000D01*
X58947000Y-92541000D02*
X51053000Y-92541000D01*
X58936000Y-92581000D02*
X51064000Y-92581000D01*
X58925000Y-92621000D02*
X51075000Y-92621000D01*
X58914000Y-92661000D02*
X51086000Y-92661000D01*
X58902000Y-92701000D02*
X51098000Y-92701000D01*
X58889000Y-92741000D02*
X51111000Y-92741000D01*
X58877000Y-92781000D02*
X51123000Y-92781000D01*
X58863000Y-92821000D02*
X51137000Y-92821000D01*
X58850000Y-92861000D02*
X51150000Y-92861000D01*
X58835000Y-92901000D02*
X51165000Y-92901000D01*
X58821000Y-92941000D02*
X51179000Y-92941000D01*
X58805000Y-92981000D02*
X56040000Y-92981000D01*
X53960000Y-92981000D02*
X51195000Y-92981000D01*
X58790000Y-93021000D02*
X56040000Y-93021000D01*
X53960000Y-93021000D02*
X51210000Y-93021000D01*
X58774000Y-93061000D02*
X56040000Y-93061000D01*
X53960000Y-93061000D02*
X51226000Y-93061000D01*
X58757000Y-93101000D02*
X56040000Y-93101000D01*
X53960000Y-93101000D02*
X51243000Y-93101000D01*
X58740000Y-93141000D02*
X56040000Y-93141000D01*
X53960000Y-93141000D02*
X51260000Y-93141000D01*
X58722000Y-93181000D02*
X56040000Y-93181000D01*
X53960000Y-93181000D02*
X51278000Y-93181000D01*
X58704000Y-93221000D02*
X56040000Y-93221000D01*
X53960000Y-93221000D02*
X51296000Y-93221000D01*
X58686000Y-93261000D02*
X56040000Y-93261000D01*
X53960000Y-93261000D02*
X51314000Y-93261000D01*
X58666000Y-93301000D02*
X56040000Y-93301000D01*
X53960000Y-93301000D02*
X51334000Y-93301000D01*
X58647000Y-93341000D02*
X56040000Y-93341000D01*
X53960000Y-93341000D02*
X51353000Y-93341000D01*
X58627000Y-93381000D02*
X56040000Y-93381000D01*
X53960000Y-93381000D02*
X51373000Y-93381000D01*
X58606000Y-93421000D02*
X56040000Y-93421000D01*
X53960000Y-93421000D02*
X51394000Y-93421000D01*
X58584000Y-93461000D02*
X56040000Y-93461000D01*
X53960000Y-93461000D02*
X51416000Y-93461000D01*
X58562000Y-93501000D02*
X56040000Y-93501000D01*
X53960000Y-93501000D02*
X51438000Y-93501000D01*
X58540000Y-93541000D02*
X56040000Y-93541000D01*
X53960000Y-93541000D02*
X51460000Y-93541000D01*
X58517000Y-93581000D02*
X56040000Y-93581000D01*
X53960000Y-93581000D02*
X51483000Y-93581000D01*
X58493000Y-93621000D02*
X56040000Y-93621000D01*
X53960000Y-93621000D02*
X51507000Y-93621000D01*
X58469000Y-93661000D02*
X56040000Y-93661000D01*
X53960000Y-93661000D02*
X51531000Y-93661000D01*
X58444000Y-93701000D02*
X56040000Y-93701000D01*
X53960000Y-93701000D02*
X51556000Y-93701000D01*
X58418000Y-93741000D02*
X56040000Y-93741000D01*
X53960000Y-93741000D02*
X51582000Y-93741000D01*
X58392000Y-93781000D02*
X56040000Y-93781000D01*
X53960000Y-93781000D02*
X51608000Y-93781000D01*
X58365000Y-93821000D02*
X56040000Y-93821000D01*
X53960000Y-93821000D02*
X51635000Y-93821000D01*
X58338000Y-93861000D02*
X56040000Y-93861000D01*
X53960000Y-93861000D02*
X51662000Y-93861000D01*
X58309000Y-93901000D02*
X56040000Y-93901000D01*
X53960000Y-93901000D02*
X51691000Y-93901000D01*
X58280000Y-93941000D02*
X56040000Y-93941000D01*
X53960000Y-93941000D02*
X51720000Y-93941000D01*
X58250000Y-93981000D02*
X56040000Y-93981000D01*
X53960000Y-93981000D02*
X51750000Y-93981000D01*
X58220000Y-94021000D02*
X56040000Y-94021000D01*
X53960000Y-94021000D02*
X51780000Y-94021000D01*
X58189000Y-94061000D02*
X56040000Y-94061000D01*
X53960000Y-94061000D02*
X51811000Y-94061000D01*
X58156000Y-94101000D02*
X56040000Y-94101000D01*
X53960000Y-94101000D02*
X51844000Y-94101000D01*
X58124000Y-94141000D02*
X56040000Y-94141000D01*
X53960000Y-94141000D02*
X51876000Y-94141000D01*
X58090000Y-94181000D02*
X56040000Y-94181000D01*
X53960000Y-94181000D02*
X51910000Y-94181000D01*
X58055000Y-94221000D02*
X56040000Y-94221000D01*
X53960000Y-94221000D02*
X51945000Y-94221000D01*
X58019000Y-94261000D02*
X56040000Y-94261000D01*
X53960000Y-94261000D02*
X51981000Y-94261000D01*
X57983000Y-94301000D02*
X56040000Y-94301000D01*
X53960000Y-94301000D02*
X52017000Y-94301000D01*
X57945000Y-94341000D02*
X56040000Y-94341000D01*
X53960000Y-94341000D02*
X52055000Y-94341000D01*
X57907000Y-94381000D02*
X56040000Y-94381000D01*
X53960000Y-94381000D02*
X52093000Y-94381000D01*
X57867000Y-94421000D02*
X56040000Y-94421000D01*
X53960000Y-94421000D02*
X52133000Y-94421000D01*
X57826000Y-94461000D02*
X56040000Y-94461000D01*
X53960000Y-94461000D02*
X52174000Y-94461000D01*
X57784000Y-94501000D02*
X56040000Y-94501000D01*
X53960000Y-94501000D02*
X52216000Y-94501000D01*
X57741000Y-94541000D02*
X56040000Y-94541000D01*
X53960000Y-94541000D02*
X52259000Y-94541000D01*
X57697000Y-94581000D02*
X56040000Y-94581000D01*
X53960000Y-94581000D02*
X52303000Y-94581000D01*
X57651000Y-94621000D02*
X56040000Y-94621000D01*
X53960000Y-94621000D02*
X52349000Y-94621000D01*
X57604000Y-94661000D02*
X56040000Y-94661000D01*
X53960000Y-94661000D02*
X52396000Y-94661000D01*
X57556000Y-94701000D02*
X56040000Y-94701000D01*
X53960000Y-94701000D02*
X52444000Y-94701000D01*
X57505000Y-94741000D02*
X56040000Y-94741000D01*
X53960000Y-94741000D02*
X52495000Y-94741000D01*
X57454000Y-94781000D02*
X56040000Y-94781000D01*
X53960000Y-94781000D02*
X52546000Y-94781000D01*
X57400000Y-94821000D02*
X56040000Y-94821000D01*
X53960000Y-94821000D02*
X52600000Y-94821000D01*
X57345000Y-94861000D02*
X56040000Y-94861000D01*
X53960000Y-94861000D02*
X52655000Y-94861000D01*
X57287000Y-94901000D02*
X56040000Y-94901000D01*
X53960000Y-94901000D02*
X52713000Y-94901000D01*
X57228000Y-94941000D02*
X56040000Y-94941000D01*
X53960000Y-94941000D02*
X52772000Y-94941000D01*
X57166000Y-94981000D02*
X56040000Y-94981000D01*
X53960000Y-94981000D02*
X52834000Y-94981000D01*
X57102000Y-95021000D02*
X56040000Y-95021000D01*
X53960000Y-95021000D02*
X52898000Y-95021000D01*
X57034000Y-95061000D02*
X52966000Y-95061000D01*
X56964000Y-95101000D02*
X53036000Y-95101000D01*
X56890000Y-95141000D02*
X53110000Y-95141000D01*
X56813000Y-95181000D02*
X53187000Y-95181000D01*
X56731000Y-95221000D02*
X53269000Y-95221000D01*
X56645000Y-95261000D02*
X53355000Y-95261000D01*
X56552000Y-95301000D02*
X53448000Y-95301000D01*
X56453000Y-95341000D02*
X53547000Y-95341000D01*
X56346000Y-95381000D02*
X53654000Y-95381000D01*
X56229000Y-95421000D02*
X53771000Y-95421000D01*
X56098000Y-95461000D02*
X53902000Y-95461000D01*
X55948000Y-95501000D02*
X54052000Y-95501000D01*
X55768000Y-95541000D02*
X54232000Y-95541000D01*
X55533000Y-95581000D02*
X54467000Y-95581000D01*
X59120000Y-91500000D02*
G75*
G02*
X50880000Y-91500000I-4120000J0D01*
G01*
X50880000Y-91500000D02*
G75*
G02*
X59120000Y-91500000I4120000J0D01*
G01*
%TO.C,C11*%
X61130000Y-96370000D02*
X63870000Y-96370000D01*
X61130000Y-96370000D02*
X61130000Y-91130000D01*
X63870000Y-96370000D02*
X63870000Y-91130000D01*
X61130000Y-91130000D02*
X63870000Y-91130000D01*
%TO.C,C10*%
X61130000Y-75130000D02*
X61130000Y-77870000D01*
X61130000Y-75130000D02*
X66370000Y-75130000D01*
X61130000Y-77870000D02*
X66370000Y-77870000D01*
X66370000Y-75130000D02*
X66370000Y-77870000D01*
%TO.C,C9*%
X87870000Y-84130000D02*
X85130000Y-84130000D01*
X87870000Y-84130000D02*
X87870000Y-89370000D01*
X85130000Y-84130000D02*
X85130000Y-89370000D01*
X87870000Y-89370000D02*
X85130000Y-89370000D01*
%TO.C,C8*%
X85630000Y-91130000D02*
X85630000Y-93870000D01*
X85630000Y-91130000D02*
X90870000Y-91130000D01*
X85630000Y-93870000D02*
X90870000Y-93870000D01*
X90870000Y-91130000D02*
X90870000Y-93870000D01*
%TO.C,C7*%
X89870000Y-66130000D02*
X87130000Y-66130000D01*
X89870000Y-66130000D02*
X89870000Y-71370000D01*
X87130000Y-66130000D02*
X87130000Y-71370000D01*
X89870000Y-71370000D02*
X87130000Y-71370000D01*
%TO.C,C6*%
X74130000Y-70870000D02*
X76870000Y-70870000D01*
X74130000Y-70870000D02*
X74130000Y-65630000D01*
X76870000Y-70870000D02*
X76870000Y-65630000D01*
X74130000Y-65630000D02*
X76870000Y-65630000D01*
%TO.C,C5*%
X96370000Y-37130000D02*
X93630000Y-37130000D01*
X96370000Y-37130000D02*
X96370000Y-42370000D01*
X93630000Y-37130000D02*
X93630000Y-42370000D01*
X96370000Y-42370000D02*
X93630000Y-42370000D01*
%TO.C,C4*%
X86370000Y-36130000D02*
X83630000Y-36130000D01*
X86370000Y-36130000D02*
X86370000Y-41370000D01*
X83630000Y-36130000D02*
X83630000Y-41370000D01*
X86370000Y-41370000D02*
X83630000Y-41370000D01*
%TO.C,C3*%
X57370000Y-36630000D02*
X54630000Y-36630000D01*
X57370000Y-36630000D02*
X57370000Y-41870000D01*
X54630000Y-36630000D02*
X54630000Y-41870000D01*
X57370000Y-41870000D02*
X54630000Y-41870000D01*
%TO.C,C2*%
X50630000Y-48630000D02*
X50630000Y-51370000D01*
X50630000Y-48630000D02*
X55870000Y-48630000D01*
X50630000Y-51370000D02*
X55870000Y-51370000D01*
X55870000Y-48630000D02*
X55870000Y-51370000D01*
%TO.C,C1*%
X50630000Y-69130000D02*
X50630000Y-71870000D01*
X50630000Y-69130000D02*
X55870000Y-69130000D01*
X50630000Y-71870000D02*
X55870000Y-71870000D01*
X55870000Y-69130000D02*
X55870000Y-71870000D01*
%TO.C,BZ1*%
X107100000Y-97500000D02*
G75*
G02*
X92900000Y-97500000I-7100000J0D01*
G01*
X92900000Y-97500000D02*
G75*
G02*
X107100000Y-97500000I7100000J0D01*
G01*
%TD*%
M02*
