%TF.GenerationSoftware,KiCad,Pcbnew,8.0.3*%
%TF.CreationDate,2024-06-16T03:37:04+05:30*%
%TF.ProjectId,labRF,6c616252-462e-46b6-9963-61645f706362,rev?*%
%TF.SameCoordinates,Original*%
%TF.FileFunction,Copper,L1,Top*%
%TF.FilePolarity,Positive*%
%FSLAX46Y46*%
G04 Gerber Fmt 4.6, Leading zero omitted, Abs format (unit mm)*
G04 Created by KiCad (PCBNEW 8.0.3) date 2024-06-16 03:37:04*
%MOMM*%
%LPD*%
G01*
G04 APERTURE LIST*
%TA.AperFunction,ComponentPad*%
%ADD10R,1.600000X1.600000*%
%TD*%
%TA.AperFunction,ComponentPad*%
%ADD11O,1.600000X1.600000*%
%TD*%
G04 APERTURE END LIST*
D10*
%TO.P,U2,1,~{RESET}/PC6*%
%TO.N,unconnected-(U2-~{RESET}{slash}PC6-Pad1)*%
X188880000Y-56140000D03*
D11*
%TO.P,U2,2,PD0*%
%TO.N,unconnected-(U2-PD0-Pad2)*%
X188880000Y-58680000D03*
%TO.P,U2,3,PD1*%
%TO.N,unconnected-(U2-PD1-Pad3)*%
X188880000Y-61220000D03*
%TO.P,U2,4,PD2*%
%TO.N,unconnected-(U2-PD2-Pad4)*%
X188880000Y-63760000D03*
%TO.P,U2,5,PD3*%
%TO.N,unconnected-(U2-PD3-Pad5)*%
X188880000Y-66300000D03*
%TO.P,U2,6,PD4*%
%TO.N,unconnected-(U2-PD4-Pad6)*%
X188880000Y-68840000D03*
%TO.P,U2,7,VCC*%
%TO.N,unconnected-(U2-VCC-Pad7)*%
X188880000Y-71380000D03*
%TO.P,U2,8,GND*%
%TO.N,Net-(U2-GND-Pad22)*%
X188880000Y-73920000D03*
%TO.P,U2,9,XTAL1/PB6*%
%TO.N,unconnected-(U2-XTAL1{slash}PB6-Pad9)*%
X188880000Y-76460000D03*
%TO.P,U2,10,XTAL2/PB7*%
%TO.N,unconnected-(U2-XTAL2{slash}PB7-Pad10)*%
X188880000Y-79000000D03*
%TO.P,U2,11,PD5*%
%TO.N,unconnected-(U2-PD5-Pad11)*%
X188880000Y-81540000D03*
%TO.P,U2,12,PD6*%
%TO.N,unconnected-(U2-PD6-Pad12)*%
X188880000Y-84080000D03*
%TO.P,U2,13,PD7*%
%TO.N,unconnected-(U2-PD7-Pad13)*%
X188880000Y-86620000D03*
%TO.P,U2,14,PB0*%
%TO.N,unconnected-(U2-PB0-Pad14)*%
X188880000Y-89160000D03*
%TO.P,U2,15,PB1*%
%TO.N,unconnected-(U2-PB1-Pad15)*%
X196500000Y-89160000D03*
%TO.P,U2,16,PB2*%
%TO.N,unconnected-(U2-PB2-Pad16)*%
X196500000Y-86620000D03*
%TO.P,U2,17,PB3*%
%TO.N,unconnected-(U2-PB3-Pad17)*%
X196500000Y-84080000D03*
%TO.P,U2,18,PB4*%
%TO.N,unconnected-(U2-PB4-Pad18)*%
X196500000Y-81540000D03*
%TO.P,U2,19,PB5*%
%TO.N,unconnected-(U2-PB5-Pad19)*%
X196500000Y-79000000D03*
%TO.P,U2,20,AVCC*%
%TO.N,unconnected-(U2-AVCC-Pad20)*%
X196500000Y-76460000D03*
%TO.P,U2,21,AREF*%
%TO.N,unconnected-(U2-AREF-Pad21)*%
X196500000Y-73920000D03*
%TO.P,U2,22,GND*%
%TO.N,Net-(U2-GND-Pad22)*%
X196500000Y-71380000D03*
%TO.P,U2,23,PC0*%
%TO.N,unconnected-(U2-PC0-Pad23)*%
X196500000Y-68840000D03*
%TO.P,U2,24,PC1*%
%TO.N,unconnected-(U2-PC1-Pad24)*%
X196500000Y-66300000D03*
%TO.P,U2,25,PC2*%
%TO.N,unconnected-(U2-PC2-Pad25)*%
X196500000Y-63760000D03*
%TO.P,U2,26,PC3*%
%TO.N,unconnected-(U2-PC3-Pad26)*%
X196500000Y-61220000D03*
%TO.P,U2,27,PC4*%
%TO.N,unconnected-(U2-PC4-Pad27)*%
X196500000Y-58680000D03*
%TO.P,U2,28,PC5*%
%TO.N,unconnected-(U2-PC5-Pad28)*%
X196500000Y-56140000D03*
%TD*%
D10*
%TO.P,U1,1,~{RESET}/PC6*%
%TO.N,unconnected-(U1-~{RESET}{slash}PC6-Pad1)*%
X48380000Y-35220000D03*
D11*
%TO.P,U1,2,PD0*%
%TO.N,unconnected-(U1-PD0-Pad2)*%
X48380000Y-37760000D03*
%TO.P,U1,3,PD1*%
%TO.N,unconnected-(U1-PD1-Pad3)*%
X48380000Y-40300000D03*
%TO.P,U1,4,PD2*%
%TO.N,unconnected-(U1-PD2-Pad4)*%
X48380000Y-42840000D03*
%TO.P,U1,5,PD3*%
%TO.N,unconnected-(U1-PD3-Pad5)*%
X48380000Y-45380000D03*
%TO.P,U1,6,PD4*%
%TO.N,unconnected-(U1-PD4-Pad6)*%
X48380000Y-47920000D03*
%TO.P,U1,7,VCC*%
%TO.N,unconnected-(U1-VCC-Pad7)*%
X48380000Y-50460000D03*
%TO.P,U1,8,GND*%
%TO.N,Net-(U1-GND-Pad22)*%
X48380000Y-53000000D03*
%TO.P,U1,9,XTAL1/PB6*%
%TO.N,unconnected-(U1-XTAL1{slash}PB6-Pad9)*%
X48380000Y-55540000D03*
%TO.P,U1,10,XTAL2/PB7*%
%TO.N,unconnected-(U1-XTAL2{slash}PB7-Pad10)*%
X48380000Y-58080000D03*
%TO.P,U1,11,PD5*%
%TO.N,unconnected-(U1-PD5-Pad11)*%
X48380000Y-60620000D03*
%TO.P,U1,12,PD6*%
%TO.N,unconnected-(U1-PD6-Pad12)*%
X48380000Y-63160000D03*
%TO.P,U1,13,PD7*%
%TO.N,unconnected-(U1-PD7-Pad13)*%
X48380000Y-65700000D03*
%TO.P,U1,14,PB0*%
%TO.N,unconnected-(U1-PB0-Pad14)*%
X48380000Y-68240000D03*
%TO.P,U1,15,PB1*%
%TO.N,unconnected-(U1-PB1-Pad15)*%
X56000000Y-68240000D03*
%TO.P,U1,16,PB2*%
%TO.N,unconnected-(U1-PB2-Pad16)*%
X56000000Y-65700000D03*
%TO.P,U1,17,PB3*%
%TO.N,unconnected-(U1-PB3-Pad17)*%
X56000000Y-63160000D03*
%TO.P,U1,18,PB4*%
%TO.N,unconnected-(U1-PB4-Pad18)*%
X56000000Y-60620000D03*
%TO.P,U1,19,PB5*%
%TO.N,unconnected-(U1-PB5-Pad19)*%
X56000000Y-58080000D03*
%TO.P,U1,20,AVCC*%
%TO.N,unconnected-(U1-AVCC-Pad20)*%
X56000000Y-55540000D03*
%TO.P,U1,21,AREF*%
%TO.N,unconnected-(U1-AREF-Pad21)*%
X56000000Y-53000000D03*
%TO.P,U1,22,GND*%
%TO.N,Net-(U1-GND-Pad22)*%
X56000000Y-50460000D03*
%TO.P,U1,23,PC0*%
%TO.N,unconnected-(U1-PC0-Pad23)*%
X56000000Y-47920000D03*
%TO.P,U1,24,PC1*%
%TO.N,unconnected-(U1-PC1-Pad24)*%
X56000000Y-45380000D03*
%TO.P,U1,25,PC2*%
%TO.N,unconnected-(U1-PC2-Pad25)*%
X56000000Y-42840000D03*
%TO.P,U1,26,PC3*%
%TO.N,unconnected-(U1-PC3-Pad26)*%
X56000000Y-40300000D03*
%TO.P,U1,27,PC4*%
%TO.N,unconnected-(U1-PC4-Pad27)*%
X56000000Y-37760000D03*
%TO.P,U1,28,PC5*%
%TO.N,unconnected-(U1-PC5-Pad28)*%
X56000000Y-35220000D03*
%TD*%
M02*
