%TF.GenerationSoftware,KiCad,Pcbnew,8.0.3*%
%TF.CreationDate,2024-06-16T03:37:04+05:30*%
%TF.ProjectId,labRF,6c616252-462e-46b6-9963-61645f706362,rev?*%
%TF.SameCoordinates,Original*%
%TF.FileFunction,Legend,Top*%
%TF.FilePolarity,Positive*%
%FSLAX46Y46*%
G04 Gerber Fmt 4.6, Leading zero omitted, Abs format (unit mm)*
G04 Created by KiCad (PCBNEW 8.0.3) date 2024-06-16 03:37:04*
%MOMM*%
%LPD*%
G01*
G04 APERTURE LIST*
%ADD10C,0.150000*%
%ADD11C,0.120000*%
G04 APERTURE END LIST*
D10*
X191928095Y-53264819D02*
X191928095Y-54074342D01*
X191928095Y-54074342D02*
X191975714Y-54169580D01*
X191975714Y-54169580D02*
X192023333Y-54217200D01*
X192023333Y-54217200D02*
X192118571Y-54264819D01*
X192118571Y-54264819D02*
X192309047Y-54264819D01*
X192309047Y-54264819D02*
X192404285Y-54217200D01*
X192404285Y-54217200D02*
X192451904Y-54169580D01*
X192451904Y-54169580D02*
X192499523Y-54074342D01*
X192499523Y-54074342D02*
X192499523Y-53264819D01*
X192928095Y-53360057D02*
X192975714Y-53312438D01*
X192975714Y-53312438D02*
X193070952Y-53264819D01*
X193070952Y-53264819D02*
X193309047Y-53264819D01*
X193309047Y-53264819D02*
X193404285Y-53312438D01*
X193404285Y-53312438D02*
X193451904Y-53360057D01*
X193451904Y-53360057D02*
X193499523Y-53455295D01*
X193499523Y-53455295D02*
X193499523Y-53550533D01*
X193499523Y-53550533D02*
X193451904Y-53693390D01*
X193451904Y-53693390D02*
X192880476Y-54264819D01*
X192880476Y-54264819D02*
X193499523Y-54264819D01*
X51428095Y-32344819D02*
X51428095Y-33154342D01*
X51428095Y-33154342D02*
X51475714Y-33249580D01*
X51475714Y-33249580D02*
X51523333Y-33297200D01*
X51523333Y-33297200D02*
X51618571Y-33344819D01*
X51618571Y-33344819D02*
X51809047Y-33344819D01*
X51809047Y-33344819D02*
X51904285Y-33297200D01*
X51904285Y-33297200D02*
X51951904Y-33249580D01*
X51951904Y-33249580D02*
X51999523Y-33154342D01*
X51999523Y-33154342D02*
X51999523Y-32344819D01*
X52999523Y-33344819D02*
X52428095Y-33344819D01*
X52713809Y-33344819D02*
X52713809Y-32344819D01*
X52713809Y-32344819D02*
X52618571Y-32487676D01*
X52618571Y-32487676D02*
X52523333Y-32582914D01*
X52523333Y-32582914D02*
X52428095Y-32630533D01*
D11*
%TO.C,U2*%
X190040000Y-54810000D02*
X190040000Y-90490000D01*
X190040000Y-90490000D02*
X195340000Y-90490000D01*
X191690000Y-54810000D02*
X190040000Y-54810000D01*
X195340000Y-54810000D02*
X193690000Y-54810000D01*
X195340000Y-90490000D02*
X195340000Y-54810000D01*
X193690000Y-54810000D02*
G75*
G02*
X191690000Y-54810000I-1000000J0D01*
G01*
%TO.C,U1*%
X49540000Y-33890000D02*
X49540000Y-69570000D01*
X49540000Y-69570000D02*
X54840000Y-69570000D01*
X51190000Y-33890000D02*
X49540000Y-33890000D01*
X54840000Y-33890000D02*
X53190000Y-33890000D01*
X54840000Y-69570000D02*
X54840000Y-33890000D01*
X53190000Y-33890000D02*
G75*
G02*
X51190000Y-33890000I-1000000J0D01*
G01*
%TD*%
M02*
