%TF.GenerationSoftware,KiCad,Pcbnew,8.0.3*%
%TF.CreationDate,2024-09-12T01:04:43+05:30*%
%TF.ProjectId,labRF,6c616252-462e-46b6-9963-61645f706362,rev?*%
%TF.SameCoordinates,Original*%
%TF.FileFunction,Copper,L2,Bot*%
%TF.FilePolarity,Positive*%
%FSLAX46Y46*%
G04 Gerber Fmt 4.6, Leading zero omitted, Abs format (unit mm)*
G04 Created by KiCad (PCBNEW 8.0.3) date 2024-09-12 01:04:43*
%MOMM*%
%LPD*%
G01*
G04 APERTURE LIST*
%TA.AperFunction,ComponentPad*%
%ADD10C,1.440000*%
%TD*%
%TA.AperFunction,ComponentPad*%
%ADD11R,1.700000X1.700000*%
%TD*%
%TA.AperFunction,ComponentPad*%
%ADD12O,1.700000X1.700000*%
%TD*%
%TA.AperFunction,ComponentPad*%
%ADD13C,1.500000*%
%TD*%
%TA.AperFunction,ComponentPad*%
%ADD14R,2.000000X1.905000*%
%TD*%
%TA.AperFunction,ComponentPad*%
%ADD15O,2.000000X1.905000*%
%TD*%
%TA.AperFunction,ComponentPad*%
%ADD16R,1.600000X1.600000*%
%TD*%
%TA.AperFunction,ComponentPad*%
%ADD17O,1.600000X1.600000*%
%TD*%
%TA.AperFunction,ComponentPad*%
%ADD18R,1.050000X1.500000*%
%TD*%
%TA.AperFunction,ComponentPad*%
%ADD19O,1.050000X1.500000*%
%TD*%
%TA.AperFunction,ComponentPad*%
%ADD20C,1.600000*%
%TD*%
%TA.AperFunction,ComponentPad*%
%ADD21R,1.500000X1.050000*%
%TD*%
%TA.AperFunction,ComponentPad*%
%ADD22O,1.500000X1.050000*%
%TD*%
%TA.AperFunction,ComponentPad*%
%ADD23C,3.600000*%
%TD*%
%TA.AperFunction,ComponentPad*%
%ADD24R,1.730000X2.030000*%
%TD*%
%TA.AperFunction,ComponentPad*%
%ADD25O,1.730000X2.030000*%
%TD*%
%TA.AperFunction,ComponentPad*%
%ADD26R,2.000000X2.000000*%
%TD*%
%TA.AperFunction,ComponentPad*%
%ADD27C,2.000000*%
%TD*%
%TA.AperFunction,ViaPad*%
%ADD28C,0.600000*%
%TD*%
%TA.AperFunction,Conductor*%
%ADD29C,0.800000*%
%TD*%
G04 APERTURE END LIST*
D10*
%TO.P,RV1,1,1*%
%TO.N,+5V*%
X55000000Y-77500000D03*
%TO.P,RV1,2,2*%
%TO.N,lcd_contrast*%
X52460000Y-80040000D03*
%TO.P,RV1,3,3*%
%TO.N,GND*%
X55000000Y-82580000D03*
%TD*%
D11*
%TO.P,J5,1,Pin_1*%
%TO.N,clk0*%
X84000000Y-32500000D03*
D12*
%TO.P,J5,2,Pin_2*%
%TO.N,unconnected-(J5-Pin_2-Pad2)*%
X86540000Y-32500000D03*
%TO.P,J5,3,Pin_3*%
%TO.N,clk2*%
X89080000Y-32500000D03*
%TO.P,J5,4,Pin_4*%
%TO.N,scl*%
X91620000Y-32500000D03*
%TO.P,J5,5,Pin_5*%
%TO.N,sda*%
X94160000Y-32500000D03*
%TO.P,J5,6,Pin_6*%
%TO.N,GND*%
X96700000Y-32500000D03*
%TO.P,J5,7,Pin_7*%
%TO.N,+5V*%
X99240000Y-32500000D03*
%TD*%
D13*
%TO.P,Y1,1,1*%
%TO.N,Net-(U1-XTAL2{slash}PB7)*%
X53000000Y-61880000D03*
%TO.P,Y1,2,2*%
%TO.N,Net-(U1-XTAL1{slash}PB6)*%
X53000000Y-57000000D03*
%TD*%
D14*
%TO.P,U4,1,IN*%
%TO.N,Net-(J11-Pin_1)*%
X65000000Y-87580000D03*
D15*
%TO.P,U4,2,GND*%
%TO.N,GND*%
X65000000Y-85040000D03*
%TO.P,U4,3,OUT*%
%TO.N,+5V*%
X65000000Y-82500000D03*
%TD*%
D16*
%TO.P,U3,1*%
%TO.N,chand*%
X84880000Y-46500000D03*
D17*
%TO.P,U3,2*%
%TO.N,Net-(J9-Pin_1)*%
X84880000Y-49040000D03*
%TO.P,U3,3*%
%TO.N,chanc*%
X84880000Y-51580000D03*
%TO.P,U3,4*%
%TO.N,Net-(J10-Pin_1)*%
X84880000Y-54120000D03*
%TO.P,U3,5*%
%TO.N,unconnected-(U3-Pad5)*%
X84880000Y-56660000D03*
%TO.P,U3,6*%
%TO.N,unconnected-(U3-Pad6)*%
X84880000Y-59200000D03*
%TO.P,U3,7,GND*%
%TO.N,GND*%
X84880000Y-61740000D03*
%TO.P,U3,8*%
%TO.N,unconnected-(U3-Pad8)*%
X92500000Y-61740000D03*
%TO.P,U3,9*%
%TO.N,unconnected-(U3-Pad9)*%
X92500000Y-59200000D03*
%TO.P,U3,10*%
%TO.N,unconnected-(U3-Pad10)*%
X92500000Y-56660000D03*
%TO.P,U3,11*%
%TO.N,unconnected-(U3-Pad11)*%
X92500000Y-54120000D03*
%TO.P,U3,12*%
%TO.N,unconnected-(U3-Pad12)*%
X92500000Y-51580000D03*
%TO.P,U3,13*%
%TO.N,unconnected-(U3-Pad13)*%
X92500000Y-49040000D03*
%TO.P,U3,14,VCC*%
%TO.N,+5V*%
X92500000Y-46500000D03*
%TD*%
D18*
%TO.P,U2,1,REF*%
%TO.N,Net-(J8-Pin_2)*%
X67500000Y-97500000D03*
D19*
%TO.P,U2,2,A*%
%TO.N,GND*%
X68770000Y-97500000D03*
%TO.P,U2,3,K*%
%TO.N,Net-(Q4-B)*%
X70040000Y-97500000D03*
%TD*%
D16*
%TO.P,U1,1,~{RESET}/PC6*%
%TO.N,Net-(U1-~{RESET}{slash}PC6)*%
X61090000Y-37500000D03*
D17*
%TO.P,U1,2,PD0*%
%TO.N,rx*%
X61090000Y-40040000D03*
%TO.P,U1,3,PD1*%
%TO.N,tx*%
X61090000Y-42580000D03*
%TO.P,U1,4,PD2*%
%TO.N,lcd_D7*%
X61090000Y-45120000D03*
%TO.P,U1,5,PD3*%
%TO.N,chand*%
X61090000Y-47660000D03*
%TO.P,U1,6,PD4*%
%TO.N,lcd_D6*%
X61090000Y-50200000D03*
%TO.P,U1,7,VCC*%
%TO.N,+5V*%
X61090000Y-52740000D03*
%TO.P,U1,8,GND*%
%TO.N,GND*%
X61090000Y-55280000D03*
%TO.P,U1,9,XTAL1/PB6*%
%TO.N,Net-(U1-XTAL1{slash}PB6)*%
X61090000Y-57820000D03*
%TO.P,U1,10,XTAL2/PB7*%
%TO.N,Net-(U1-XTAL2{slash}PB7)*%
X61090000Y-60360000D03*
%TO.P,U1,11,PD5*%
%TO.N,lcd_D5*%
X61090000Y-62900000D03*
%TO.P,U1,12,PD6*%
%TO.N,lcd_D4*%
X61090000Y-65440000D03*
%TO.P,U1,13,PD7*%
%TO.N,lcd_enb*%
X61090000Y-67980000D03*
%TO.P,U1,14,PB0*%
%TO.N,lcd_rs*%
X61090000Y-70520000D03*
%TO.P,U1,15,PB1*%
%TO.N,bias*%
X68710000Y-70520000D03*
%TO.P,U1,16,PB2*%
%TO.N,chanc*%
X68710000Y-67980000D03*
%TO.P,U1,17,PB3*%
%TO.N,rotm_dt*%
X68710000Y-65440000D03*
%TO.P,U1,18,PB4*%
%TO.N,rotm_clk*%
X68710000Y-62900000D03*
%TO.P,U1,19,PB5*%
%TO.N,rotm_sw*%
X68710000Y-60360000D03*
%TO.P,U1,20,AVCC*%
%TO.N,+5V*%
X68710000Y-57820000D03*
%TO.P,U1,21,AREF*%
%TO.N,unconnected-(U1-AREF-Pad21)*%
X68710000Y-55280000D03*
%TO.P,U1,22,GND*%
%TO.N,GND*%
X68710000Y-52740000D03*
%TO.P,U1,23,PC0*%
%TO.N,rots_clk*%
X68710000Y-50200000D03*
%TO.P,U1,24,PC1*%
%TO.N,rots_dt*%
X68710000Y-47660000D03*
%TO.P,U1,25,PC2*%
%TO.N,rots_sw*%
X68710000Y-45120000D03*
%TO.P,U1,26,PC3*%
%TO.N,buzz*%
X68710000Y-42580000D03*
%TO.P,U1,27,PC4*%
%TO.N,sda*%
X68710000Y-40040000D03*
%TO.P,U1,28,PC5*%
%TO.N,scl*%
X68710000Y-37500000D03*
%TD*%
D20*
%TO.P,R5,1*%
%TO.N,Net-(Q4-B)*%
X80080000Y-90000000D03*
D17*
%TO.P,R5,2*%
%TO.N,+5V*%
X69920000Y-90000000D03*
%TD*%
D20*
%TO.P,R4,1*%
%TO.N,buzz*%
X70000000Y-79300000D03*
D17*
%TO.P,R4,2*%
%TO.N,Net-(Q3-B)*%
X80160000Y-79300000D03*
%TD*%
D20*
%TO.P,R3,1*%
%TO.N,bias*%
X71840000Y-85000000D03*
D17*
%TO.P,R3,2*%
%TO.N,Net-(Q2-B)*%
X82000000Y-85000000D03*
%TD*%
D20*
%TO.P,R2,1*%
%TO.N,bias*%
X69840000Y-75000000D03*
D17*
%TO.P,R2,2*%
%TO.N,Net-(Q1-B)*%
X80000000Y-75000000D03*
%TD*%
D20*
%TO.P,R1,1*%
%TO.N,Net-(U1-~{RESET}{slash}PC6)*%
X52500000Y-35340000D03*
D17*
%TO.P,R1,2*%
%TO.N,+5V*%
X52500000Y-45500000D03*
%TD*%
D18*
%TO.P,Q4,1,C*%
%TO.N,+5V*%
X77460000Y-100000000D03*
D19*
%TO.P,Q4,2,B*%
%TO.N,Net-(Q4-B)*%
X78730000Y-100000000D03*
%TO.P,Q4,3,E*%
%TO.N,Net-(J8-Pin_1)*%
X80000000Y-100000000D03*
%TD*%
D21*
%TO.P,Q3,1,C*%
%TO.N,Net-(BZ1--)*%
X87500000Y-102540000D03*
D22*
%TO.P,Q3,2,B*%
%TO.N,Net-(Q3-B)*%
X87500000Y-101270000D03*
%TO.P,Q3,3,E*%
%TO.N,GND*%
X87500000Y-100000000D03*
%TD*%
D21*
%TO.P,Q2,1,C*%
%TO.N,Net-(J8-Pin_1)*%
X92500000Y-85000000D03*
D22*
%TO.P,Q2,2,B*%
%TO.N,Net-(Q2-B)*%
X92500000Y-86270000D03*
%TO.P,Q2,3,E*%
%TO.N,Net-(Q2-E)*%
X92500000Y-87540000D03*
%TD*%
D21*
%TO.P,Q1,1,C*%
%TO.N,Net-(J8-Pin_1)*%
X94000000Y-73730000D03*
D22*
%TO.P,Q1,2,B*%
%TO.N,Net-(Q1-B)*%
X94000000Y-75000000D03*
%TO.P,Q1,3,E*%
%TO.N,Net-(Q1-E)*%
X94000000Y-76270000D03*
%TD*%
D23*
%TO.P,L2,1,1*%
%TO.N,Net-(Q2-E)*%
X100000000Y-80000000D03*
%TO.P,L2,2,2*%
%TO.N,Net-(JP2-B)*%
X105580000Y-80000000D03*
%TD*%
%TO.P,L1,1,1*%
%TO.N,Net-(Q1-E)*%
X96920000Y-63000000D03*
%TO.P,L1,2,2*%
%TO.N,Net-(JP1-B)*%
X102500000Y-63000000D03*
%TD*%
D11*
%TO.P,JP2,1,A*%
%TO.N,Net-(J7-Pin_1)*%
X100000000Y-40000000D03*
D12*
%TO.P,JP2,2,B*%
%TO.N,Net-(JP2-B)*%
X100000000Y-42540000D03*
%TD*%
D11*
%TO.P,JP1,1,A*%
%TO.N,Net-(J6-Pin_1)*%
X100000000Y-48000000D03*
D12*
%TO.P,JP1,2,B*%
%TO.N,Net-(JP1-B)*%
X100000000Y-50540000D03*
%TD*%
D11*
%TO.P,J11,1,Pin_1*%
%TO.N,Net-(J11-Pin_1)*%
X46500000Y-98460000D03*
D12*
%TO.P,J11,2,Pin_2*%
%TO.N,GND*%
X46500000Y-101000000D03*
%TD*%
D11*
%TO.P,J10,1,Pin_1*%
%TO.N,Net-(J10-Pin_1)*%
X80000000Y-55000000D03*
D12*
%TO.P,J10,2,Pin_2*%
%TO.N,GND*%
X80000000Y-57540000D03*
%TD*%
%TO.P,J9,2,Pin_2*%
%TO.N,GND*%
X80000000Y-47540000D03*
D11*
%TO.P,J9,1,Pin_1*%
%TO.N,Net-(J9-Pin_1)*%
X80000000Y-45000000D03*
%TD*%
D24*
%TO.P,J8,1,Pin_1*%
%TO.N,Net-(J8-Pin_1)*%
X54960000Y-100000000D03*
D25*
%TO.P,J8,2,Pin_2*%
%TO.N,Net-(J8-Pin_2)*%
X57500000Y-100000000D03*
%TO.P,J8,3,Pin_3*%
%TO.N,GND*%
X60040000Y-100000000D03*
%TD*%
D11*
%TO.P,J7,1,Pin_1*%
%TO.N,Net-(J7-Pin_1)*%
X106000000Y-37500000D03*
D12*
%TO.P,J7,2,Pin_2*%
%TO.N,GND*%
X106000000Y-40040000D03*
%TD*%
D11*
%TO.P,J6,1,Pin_1*%
%TO.N,Net-(J6-Pin_1)*%
X105500000Y-47500000D03*
D12*
%TO.P,J6,2,Pin_2*%
%TO.N,GND*%
X105500000Y-50040000D03*
%TD*%
D11*
%TO.P,J4,1,Pin_1*%
%TO.N,scl*%
X46500000Y-32760000D03*
D12*
%TO.P,J4,2,Pin_2*%
%TO.N,sda*%
X46500000Y-35300000D03*
%TO.P,J4,3,Pin_3*%
%TO.N,rx*%
X46500000Y-37840000D03*
%TO.P,J4,4,Pin_4*%
%TO.N,tx*%
X46500000Y-40380000D03*
%TO.P,J4,5,Pin_5*%
%TO.N,reset*%
X46500000Y-42920000D03*
%TO.P,J4,6,Pin_6*%
%TO.N,+5V*%
X46500000Y-45460000D03*
%TO.P,J4,7,Pin_7*%
%TO.N,GND*%
X46500000Y-48000000D03*
%TD*%
D11*
%TO.P,J3,1,Pin_1*%
%TO.N,GND*%
X46500000Y-92100000D03*
D12*
%TO.P,J3,2,Pin_2*%
%TO.N,+5V*%
X46500000Y-89560000D03*
%TO.P,J3,3,Pin_3*%
%TO.N,lcd_contrast*%
X46500000Y-87020000D03*
%TO.P,J3,4,Pin_4*%
%TO.N,lcd_rs*%
X46500000Y-84480000D03*
%TO.P,J3,5,Pin_5*%
%TO.N,GND*%
X46500000Y-81940000D03*
%TO.P,J3,6,Pin_6*%
%TO.N,lcd_enb*%
X46500000Y-79400000D03*
%TO.P,J3,7,Pin_7*%
%TO.N,unconnected-(J3-Pin_7-Pad7)*%
X46500000Y-76860000D03*
%TO.P,J3,8,Pin_8*%
%TO.N,unconnected-(J3-Pin_8-Pad8)*%
X46500000Y-74320000D03*
%TO.P,J3,9,Pin_9*%
%TO.N,unconnected-(J3-Pin_9-Pad9)*%
X46500000Y-71780000D03*
%TO.P,J3,10,Pin_10*%
%TO.N,unconnected-(J3-Pin_10-Pad10)*%
X46500000Y-69240000D03*
%TO.P,J3,11,Pin_11*%
%TO.N,lcd_D4*%
X46500000Y-66700000D03*
%TO.P,J3,12,Pin_12*%
%TO.N,lcd_D5*%
X46500000Y-64160000D03*
%TO.P,J3,13,Pin_13*%
%TO.N,lcd_D6*%
X46500000Y-61620000D03*
%TO.P,J3,14,Pin_14*%
%TO.N,lcd_D7*%
X46500000Y-59080000D03*
%TO.P,J3,15,Pin_15*%
%TO.N,+5V*%
X46500000Y-56540000D03*
%TO.P,J3,16,Pin_16*%
%TO.N,GND*%
X46500000Y-54000000D03*
%TD*%
D11*
%TO.P,J2,1,Pin_1*%
%TO.N,rotm_clk*%
X75000000Y-62500000D03*
D12*
%TO.P,J2,2,Pin_2*%
%TO.N,rotm_dt*%
X75000000Y-59960000D03*
%TO.P,J2,3,Pin_3*%
%TO.N,rotm_sw*%
X75000000Y-57420000D03*
%TO.P,J2,4,Pin_4*%
%TO.N,+5V*%
X75000000Y-54880000D03*
%TO.P,J2,5,Pin_5*%
%TO.N,GND*%
X75000000Y-52340000D03*
%TD*%
D11*
%TO.P,J1,1,Pin_1*%
%TO.N,rots_clk*%
X75000000Y-47660000D03*
D12*
%TO.P,J1,2,Pin_2*%
%TO.N,rots_dt*%
X75000000Y-45120000D03*
%TO.P,J1,3,Pin_3*%
%TO.N,rots_sw*%
X75000000Y-42580000D03*
%TO.P,J1,4,Pin_4*%
%TO.N,+5V*%
X75000000Y-40040000D03*
%TO.P,J1,5,Pin_5*%
%TO.N,GND*%
X75000000Y-37500000D03*
%TD*%
D16*
%TO.P,C14,1*%
%TO.N,Net-(J8-Pin_1)*%
X84000000Y-77000000D03*
D20*
%TO.P,C14,2*%
%TO.N,GND*%
X89000000Y-77000000D03*
%TD*%
%TO.P,C13,1*%
%TO.N,GND*%
X82000000Y-67500000D03*
%TO.P,C13,2*%
%TO.N,Net-(J8-Pin_1)*%
X82000000Y-70000000D03*
%TD*%
D16*
%TO.P,C12,1*%
%TO.N,+5V*%
X55000000Y-89000000D03*
D20*
%TO.P,C12,2*%
%TO.N,GND*%
X55000000Y-94000000D03*
%TD*%
%TO.P,C11,1*%
%TO.N,GND*%
X62500000Y-95000000D03*
%TO.P,C11,2*%
%TO.N,+5V*%
X62500000Y-92500000D03*
%TD*%
%TO.P,C10,1*%
%TO.N,GND*%
X62500000Y-76500000D03*
%TO.P,C10,2*%
%TO.N,Net-(J11-Pin_1)*%
X65000000Y-76500000D03*
%TD*%
%TO.P,C9,1*%
%TO.N,Net-(Q2-B)*%
X86500000Y-85500000D03*
%TO.P,C9,2*%
%TO.N,GND*%
X86500000Y-88000000D03*
%TD*%
%TO.P,C8,1*%
%TO.N,GND*%
X87000000Y-92500000D03*
%TO.P,C8,2*%
%TO.N,Net-(J8-Pin_1)*%
X89500000Y-92500000D03*
%TD*%
%TO.P,C7,1*%
%TO.N,GND*%
X88500000Y-67500000D03*
%TO.P,C7,2*%
%TO.N,Net-(J8-Pin_1)*%
X88500000Y-70000000D03*
%TD*%
%TO.P,C6,1*%
%TO.N,Net-(Q1-B)*%
X75500000Y-69500000D03*
%TO.P,C6,2*%
%TO.N,GND*%
X75500000Y-67000000D03*
%TD*%
%TO.P,C5,1*%
%TO.N,clk2*%
X95000000Y-38500000D03*
%TO.P,C5,2*%
%TO.N,Net-(J7-Pin_1)*%
X95000000Y-41000000D03*
%TD*%
%TO.P,C4,1*%
%TO.N,clk0*%
X85000000Y-37500000D03*
%TO.P,C4,2*%
%TO.N,Net-(J6-Pin_1)*%
X85000000Y-40000000D03*
%TD*%
%TO.P,C3,1*%
%TO.N,Net-(U1-~{RESET}{slash}PC6)*%
X56000000Y-38000000D03*
%TO.P,C3,2*%
%TO.N,reset*%
X56000000Y-40500000D03*
%TD*%
%TO.P,C2,1*%
%TO.N,Net-(U1-XTAL1{slash}PB6)*%
X52000000Y-50000000D03*
%TO.P,C2,2*%
%TO.N,GND*%
X54500000Y-50000000D03*
%TD*%
%TO.P,C1,1*%
%TO.N,Net-(U1-XTAL2{slash}PB7)*%
X52000000Y-70500000D03*
%TO.P,C1,2*%
%TO.N,GND*%
X54500000Y-70500000D03*
%TD*%
D26*
%TO.P,BZ1,1,+*%
%TO.N,+5V*%
X100000000Y-102500000D03*
D27*
%TO.P,BZ1,2,-*%
%TO.N,Net-(BZ1--)*%
X100000000Y-92500000D03*
%TD*%
D28*
%TO.N,GND*%
X80000000Y-35000000D03*
%TO.N,sda*%
X77500000Y-32500000D03*
X72500000Y-37500000D03*
%TD*%
D29*
%TO.N,GND*%
X52500000Y-92500000D02*
X53500000Y-92500000D01*
X52500000Y-85080000D02*
X52500000Y-92500000D01*
X55000000Y-82580000D02*
X52500000Y-85080000D01*
X53500000Y-92500000D02*
X55000000Y-94000000D01*
X60040000Y-97460000D02*
X62500000Y-95000000D01*
X60040000Y-100000000D02*
X60040000Y-97460000D01*
X94200000Y-35000000D02*
X96700000Y-32500000D01*
X80000000Y-35000000D02*
X94200000Y-35000000D01*
%TO.N,+5V*%
X97500000Y-41500000D02*
X92500000Y-46500000D01*
X99240000Y-35760000D02*
X97500000Y-37500000D01*
X97500000Y-37500000D02*
X97500000Y-41500000D01*
X99240000Y-32500000D02*
X99240000Y-35760000D01*
%TO.N,GND*%
X69110000Y-52340000D02*
X75000000Y-52340000D01*
X68710000Y-52740000D02*
X69110000Y-52340000D01*
X57460000Y-85040000D02*
X55000000Y-82580000D01*
X65000000Y-85040000D02*
X57460000Y-85040000D01*
X61080000Y-76500000D02*
X55000000Y-82580000D01*
X62500000Y-76500000D02*
X61080000Y-76500000D01*
X77500000Y-50040000D02*
X80000000Y-47540000D01*
X77500000Y-57500000D02*
X77500000Y-50040000D01*
X77540000Y-57540000D02*
X77500000Y-57500000D01*
X80000000Y-57540000D02*
X77540000Y-57540000D01*
X80040000Y-47500000D02*
X80000000Y-47540000D01*
X82500000Y-47500000D02*
X80040000Y-47500000D01*
X80000000Y-42500000D02*
X82500000Y-42500000D01*
X82500000Y-42500000D02*
X82500000Y-47500000D01*
X75000000Y-37500000D02*
X80000000Y-42500000D01*
X79800000Y-47540000D02*
X75000000Y-52340000D01*
X80000000Y-47540000D02*
X79800000Y-47540000D01*
%TO.N,sda*%
X77500000Y-32500000D02*
X75000000Y-32500000D01*
X69960000Y-40040000D02*
X72500000Y-37500000D01*
X68710000Y-40040000D02*
X69960000Y-40040000D01*
%TO.N,chand*%
X77500000Y-35000000D02*
X84880000Y-42380000D01*
X65000000Y-35000000D02*
X77500000Y-35000000D01*
X84880000Y-42380000D02*
X84880000Y-46500000D01*
X65000000Y-47500000D02*
X65000000Y-35000000D01*
X64840000Y-47660000D02*
X65000000Y-47500000D01*
X61090000Y-47660000D02*
X64840000Y-47660000D01*
%TO.N,Net-(Q1-B)*%
X87500000Y-75000000D02*
X92500000Y-75000000D01*
X92500000Y-75000000D02*
X94000000Y-75000000D01*
%TO.N,Net-(Q1-E)*%
X97500000Y-75000000D02*
X97500000Y-63580000D01*
X96230000Y-76270000D02*
X97500000Y-75000000D01*
X94000000Y-76270000D02*
X96230000Y-76270000D01*
X97500000Y-63580000D02*
X96920000Y-63000000D01*
%TO.N,chanc*%
X82500000Y-53960000D02*
X84880000Y-51580000D01*
X82500000Y-65000000D02*
X82500000Y-53960000D01*
X71690000Y-65000000D02*
X82500000Y-65000000D01*
X68710000Y-67980000D02*
X71690000Y-65000000D01*
%TO.N,Net-(JP2-B)*%
X102500000Y-52500000D02*
X102500000Y-45040000D01*
X105000000Y-55000000D02*
X102500000Y-52500000D01*
X107500000Y-55000000D02*
X105000000Y-55000000D01*
X105580000Y-80000000D02*
X107500000Y-78080000D01*
X107500000Y-78080000D02*
X107500000Y-55000000D01*
X102500000Y-45040000D02*
X100000000Y-42540000D01*
%TO.N,Net-(Q1-B)*%
X80000000Y-75000000D02*
X87500000Y-75000000D01*
%TO.N,Net-(JP1-B)*%
X102500000Y-63000000D02*
X100000000Y-60500000D01*
X100000000Y-60500000D02*
X100000000Y-50540000D01*
%TO.N,Net-(J8-Pin_1)*%
X85000000Y-80000000D02*
X85000000Y-78000000D01*
X85000000Y-78000000D02*
X84000000Y-77000000D01*
X87500000Y-80000000D02*
X85000000Y-80000000D01*
X92500000Y-85000000D02*
X87500000Y-80000000D01*
X92500000Y-92500000D02*
X89500000Y-92500000D01*
X97500000Y-87500000D02*
X92500000Y-92500000D01*
X97500000Y-85000000D02*
X97500000Y-87500000D01*
X92500000Y-85000000D02*
X97500000Y-85000000D01*
%TO.N,Net-(J11-Pin_1)*%
X62580000Y-87580000D02*
X65000000Y-87580000D01*
X62500000Y-87500000D02*
X62580000Y-87580000D01*
X60000000Y-92500000D02*
X60000000Y-90000000D01*
X60000000Y-90000000D02*
X62500000Y-87500000D01*
X52500000Y-97500000D02*
X55000000Y-97500000D01*
X51540000Y-98460000D02*
X52500000Y-97500000D01*
X55000000Y-97500000D02*
X60000000Y-92500000D01*
X46500000Y-98460000D02*
X51540000Y-98460000D01*
%TO.N,+5V*%
X90000000Y-105000000D02*
X80000000Y-105000000D01*
X92500000Y-102500000D02*
X90000000Y-105000000D01*
X100000000Y-102500000D02*
X92500000Y-102500000D01*
X80000000Y-105000000D02*
X77460000Y-102460000D01*
X77460000Y-102460000D02*
X77460000Y-100000000D01*
%TO.N,Net-(Q4-B)*%
X72580000Y-97500000D02*
X80080000Y-90000000D01*
X70040000Y-97500000D02*
X72580000Y-97500000D01*
%TO.N,Net-(J8-Pin_1)*%
X90000000Y-95000000D02*
X90000000Y-93000000D01*
X90000000Y-93000000D02*
X89500000Y-92500000D01*
X85000000Y-95000000D02*
X90000000Y-95000000D01*
X80000000Y-100000000D02*
X85000000Y-95000000D01*
%TO.N,+5V*%
X67500000Y-57820000D02*
X67180000Y-57820000D01*
X68710000Y-57820000D02*
X67500000Y-57820000D01*
X42500000Y-85560000D02*
X46500000Y-89560000D01*
X42500000Y-55000000D02*
X42500000Y-85560000D01*
X65000000Y-72500000D02*
X62500000Y-75000000D01*
X65000000Y-60000000D02*
X65000000Y-72500000D01*
X60000000Y-75000000D02*
X57500000Y-77500000D01*
X67180000Y-57820000D02*
X65000000Y-60000000D01*
X62500000Y-75000000D02*
X60000000Y-75000000D01*
X57500000Y-77500000D02*
X55000000Y-77500000D01*
%TO.N,lcd_D6*%
X57500000Y-50000000D02*
X60890000Y-50000000D01*
X50000000Y-60000000D02*
X57500000Y-60000000D01*
X60890000Y-50000000D02*
X61090000Y-50200000D01*
X48380000Y-61620000D02*
X50000000Y-60000000D01*
X57500000Y-60000000D02*
X57500000Y-50000000D01*
X46500000Y-61620000D02*
X48380000Y-61620000D01*
%TO.N,lcd_D7*%
X60000000Y-45000000D02*
X60120000Y-45120000D01*
X57500000Y-47500000D02*
X60000000Y-45000000D01*
X50000000Y-47500000D02*
X57500000Y-47500000D01*
X50000000Y-57500000D02*
X50000000Y-47500000D01*
X48420000Y-59080000D02*
X50000000Y-57500000D01*
X46500000Y-59080000D02*
X48420000Y-59080000D01*
X60120000Y-45120000D02*
X61090000Y-45120000D01*
%TO.N,+5V*%
X42500000Y-49460000D02*
X46500000Y-45460000D01*
X44040000Y-56540000D02*
X42500000Y-55000000D01*
X46500000Y-56540000D02*
X44040000Y-56540000D01*
X42500000Y-55000000D02*
X42500000Y-49460000D01*
%TO.N,lcd_D5*%
X57500000Y-62500000D02*
X60690000Y-62500000D01*
X60690000Y-62500000D02*
X61090000Y-62900000D01*
X55840000Y-64160000D02*
X57500000Y-62500000D01*
X46500000Y-64160000D02*
X55840000Y-64160000D01*
%TO.N,lcd_D4*%
X60650000Y-65000000D02*
X61090000Y-65440000D01*
X57500000Y-65000000D02*
X60650000Y-65000000D01*
X55800000Y-66700000D02*
X57500000Y-65000000D01*
X46500000Y-66700000D02*
X55800000Y-66700000D01*
%TO.N,lcd_rs*%
X56610000Y-75000000D02*
X61090000Y-70520000D01*
X50000000Y-77500000D02*
X52500000Y-75000000D01*
X50000000Y-82500000D02*
X50000000Y-77500000D01*
X52500000Y-75000000D02*
X56610000Y-75000000D01*
X48020000Y-84480000D02*
X50000000Y-82500000D01*
X46500000Y-84480000D02*
X48020000Y-84480000D01*
%TO.N,sda*%
X91660000Y-30000000D02*
X94160000Y-32500000D01*
X77500000Y-30000000D02*
X91660000Y-30000000D01*
X75000000Y-32500000D02*
X77500000Y-30000000D01*
%TO.N,rotm_clk*%
X74600000Y-62900000D02*
X75000000Y-62500000D01*
X68710000Y-62900000D02*
X74600000Y-62900000D01*
%TO.N,sda*%
X75000000Y-32500000D02*
X62500000Y-32500000D01*
X46800000Y-35000000D02*
X46500000Y-35300000D01*
X50000000Y-35000000D02*
X46800000Y-35000000D01*
X52500000Y-32500000D02*
X50000000Y-35000000D01*
X62500000Y-32500000D02*
X52500000Y-32500000D01*
%TO.N,rx*%
X55000000Y-35000000D02*
X57500000Y-35000000D01*
X57500000Y-35000000D02*
X57500000Y-36450000D01*
X52500000Y-37500000D02*
X55000000Y-35000000D01*
X46840000Y-37500000D02*
X52500000Y-37500000D01*
X57500000Y-36450000D02*
X61090000Y-40040000D01*
X46500000Y-37840000D02*
X46840000Y-37500000D01*
%TO.N,tx*%
X50380000Y-40380000D02*
X52500000Y-42500000D01*
X52500000Y-42500000D02*
X61010000Y-42500000D01*
X46500000Y-40380000D02*
X50380000Y-40380000D01*
X61010000Y-42500000D02*
X61090000Y-42580000D01*
%TO.N,+5V*%
X61090000Y-52740000D02*
X62420000Y-52740000D01*
X62420000Y-52740000D02*
X67500000Y-57820000D01*
%TD*%
M02*
